<?xml version="1.0" encoding="UTF-8" standalone="no"?>
<!-- Created with Inkscape (http://www.inkscape.org/) -->

<svg
   xmlns:dc="http://purl.org/dc/elements/1.1/"
   xmlns:cc="http://creativecommons.org/ns#"
   xmlns:rdf="http://www.w3.org/1999/02/22-rdf-syntax-ns#"
   xmlns:svg="http://www.w3.org/2000/svg"
   xmlns="http://www.w3.org/2000/svg"
   xmlns:sodipodi="http://sodipodi.sourceforge.net/DTD/sodipodi-0.dtd"
   xmlns:inkscape="http://www.inkscape.org/namespaces/inkscape"
   id="svg3020"
   version="1.1"
   inkscape:version="0.92.2 (5c3e80d, 2017-08-06)"
   width="387.67566"
   height="144.64265"
   xml:space="preserve"
   sodipodi:docname="baignade-1-star.svg"
   inkscape:export-filename="/home/ian/workspace/bwq-profiles/app/images/baignade-1-star.png"
   inkscape:export-xdpi="53.894737"
   inkscape:export-ydpi="53.894737"
   viewBox="0 0 363.44592 135.60249"><metadata
     id="metadata3026"><rdf:RDF><cc:Work
         rdf:about=""><dc:format>image/svg+xml</dc:format><dc:type
           rdf:resource="http://purl.org/dc/dcmitype/StillImage" /><dc:title></dc:title></cc:Work></rdf:RDF></metadata><defs
     id="defs3024" /><sodipodi:namedview
     pagecolor="#ffffff"
     bordercolor="#666666"
     borderopacity="1"
     objecttolerance="10"
     gridtolerance="10"
     guidetolerance="10"
     inkscape:pageopacity="0"
     inkscape:pageshadow="2"
     inkscape:window-width="1920"
     inkscape:window-height="1136"
     id="namedview3022"
     showgrid="false"
     inkscape:zoom="2.8966901"
     inkscape:cx="340.30686"
     inkscape:cy="67.799995"
     inkscape:window-x="0"
     inkscape:window-y="27"
     inkscape:window-maximized="1"
     inkscape:current-layer="g3028"
     fit-margin-top="1"
     fit-margin-left="1"
     fit-margin-right="1"
     fit-margin-bottom="1" /><g
     id="g3028"
     inkscape:groupmode="layer"
     inkscape:label="ink_ext_XXXXXX"
     transform="matrix(1.25,0,0,-1.25,1,134.6025)"><path
       inkscape:connector-curvature="0"
       id="path3038"
       style="fill:#1a3571;fill-opacity:1;fill-rule:nonzero;stroke:none"
       d="m 142.26,28.119332 h 5.052 l 1.689,4.7949 1.679,-4.7949 h 5.05 l -3.93,-3.2586 1.638,-4.845 -4.451,2.9133 -4.436,-2.9133 1.641,4.845 -3.932,3.2586"
       inkscape:export-xdpi="53.894737"
       inkscape:export-ydpi="53.894737" /><g
       id="g3860"
       transform="translate(0,0.98541565)"
       inkscape:export-filename="/home/ian/workspace/bwq-profiles/app/images/path3038.png"
       inkscape:export-xdpi="53.894737"
       inkscape:export-ydpi="53.894737"
       style="fill:#999999;fill-opacity:1;stroke:none;stroke-opacity:1"><path
         d="m 142.202,42.1777 h 5.051 l 1.69,4.795 1.679,-4.795 h 5.049 l -3.929,-3.2586 1.637,-4.8449 -4.451,2.9133 -4.435,-2.9133 1.64,4.8449 -3.931,3.2586"
         style="fill:#999999;fill-opacity:1;fill-rule:nonzero;stroke:none;stroke-opacity:1"
         id="path3036"
         inkscape:connector-curvature="0" /><path
         d="m 160.038,42.1777 h 5.05 l 1.69,4.795 1.68,-4.795 h 5.048 l -3.929,-3.2586 1.638,-4.8449 -4.451,2.9133 -4.435,-2.9133 1.64,4.8449 -3.931,3.2586"
         style="fill:#999999;fill-opacity:1;fill-rule:nonzero;stroke:none;stroke-opacity:1"
         id="path3040"
         inkscape:connector-curvature="0" /></g><g
       id="g3855"
       inkscape:export-filename="/home/ian/workspace/bwq-profiles/app/images/path3038.png"
       inkscape:export-xdpi="53.894737"
       inkscape:export-ydpi="53.894737"
       style="fill:#999999;fill-opacity:1;stroke:none;stroke-opacity:1"><path
         d="m 142.26,58.207 h 5.052 l 1.689,4.795 1.679,-4.795 h 5.05 l -3.93,-3.2586 1.638,-4.8449 -4.451,2.9133 -4.436,-2.9133 1.641,4.8449 -3.932,3.2586"
         style="fill:#999999;fill-opacity:1;fill-rule:nonzero;stroke:none;stroke-opacity:1"
         id="path3032"
         inkscape:connector-curvature="0" /><path
         d="m 160.09599,58.207 h 5.051 l 1.689,4.795 1.68,-4.795 h 5.049 l -3.93,-3.2586 1.639,-4.8449 -4.451,2.9133 -4.436,-2.9133 1.641,4.8449 -3.932,3.2586"
         style="fill:#999999;fill-opacity:1;fill-rule:nonzero;stroke:none;stroke-opacity:1"
         id="path3034"
         inkscape:connector-curvature="0" /><path
         d="m 177.931,58.207 h 5.052 l 1.689,4.795 1.679,-4.795 h 5.05 l -3.93,-3.2586 1.638,-4.8449 -4.451,2.9133 -4.436,-2.9133 1.641,4.8449 -3.932,3.2586"
         style="fill:#999999;fill-opacity:1;fill-rule:nonzero;stroke:none;stroke-opacity:1"
         id="path3042"
         inkscape:connector-curvature="0" /></g><path
       inkscape:connector-curvature="0"
       id="path3044"
       style="fill:#737373;fill-opacity:1;stroke:#999999;stroke-width:4;stroke-linecap:butt;stroke-linejoin:miter;stroke-miterlimit:10;stroke-dasharray:none;stroke-opacity:1"
       d="m 143.687,11.4211 h 13.165"
       inkscape:export-filename="/home/ian/workspace/bwq-profiles/app/images/path3038.png"
       inkscape:export-xdpi="53.894737"
       inkscape:export-ydpi="53.894737" /><path
       inkscape:connector-curvature="0"
       id="path3046"
       style="fill:#1a3571;fill-opacity:1;fill-rule:nonzero;stroke:none"
       d="m 46.1695,89.209 h 10.9453 l 3.659,10.3879 3.6379,-10.3879 H 75.352 l -8.5125,-7.0606 3.5476,-10.4949 -9.6445,6.3098 -9.6082,-6.3098 3.5527,10.4949 -8.5176,7.0606"
       inkscape:export-filename="/home/ian/workspace/bwq-profiles/app/images/path3038.png"
       inkscape:export-xdpi="53.894737"
       inkscape:export-ydpi="53.894737" /><path
       inkscape:connector-curvature="0"
       id="path3048"
       style="fill:#1a3571;fill-opacity:1;fill-rule:nonzero;stroke:none"
       d="m 20.5938,23.8488 c 3.2863,-0.6933 6.6523,-1.1008 9.8765,-0.6289 3.2188,0.452 6.2352,2.25 9.7813,2.8789 3.6168,0.6309 7.1566,-0.2312 10.4242,-1.198 3.2832,-0.9629 6.4957,-2.0891 9.7719,-2.175 3.257,-0.0949 6.4527,1.0547 9.7734,1.9687 3.3117,0.9082 6.7617,1.6184 10.2945,1.6024 3.6324,0.0344 6.9821,-1.336 10.1653,-2.1461 3.216,-0.8266 6.564,-1.0598 9.8141,-0.5481 l 0.249,-1.9316 c -3.519,-0.3645 -7.0979,-0.091 -10.4819,0.8 -3.3848,0.9031 -6.4992,2.1902 -9.7617,2.1727 -3.3035,0.0402 -6.6121,-0.6016 -9.8731,-1.4708 -3.2296,-0.8523 -6.5984,-2.0664 -10.2253,-1.9433 -3.5829,0.1258 -6.9098,1.2832 -10.15,2.2234 -3.2247,0.9543 -6.5454,1.7043 -9.7172,1.1367 -3.2035,-0.5457 -6.2356,-2.364 -9.8106,-2.9121 -3.5519,-0.5203 -7.0726,-0.0918 -10.4476,0.5813 l 0.3172,1.5898"
       inkscape:export-filename="/home/ian/workspace/bwq-profiles/app/images/path3038.png"
       inkscape:export-xdpi="53.894737"
       inkscape:export-ydpi="53.894737" /><path
       inkscape:connector-curvature="0"
       id="path3050"
       style="fill:#1a3571;fill-opacity:1;fill-rule:nonzero;stroke:none"
       d="m 20.5938,17.8039 c 3.2863,-0.6934 6.6523,-1.1008 9.8765,-0.6289 3.2188,0.452 6.2352,2.25 9.7813,2.8789 3.6168,0.6309 7.1566,-0.2316 10.4242,-1.1984 3.2832,-0.9629 6.4957,-2.0887 9.7719,-2.1746 3.257,-0.095 6.4527,1.0546 9.7734,1.9687 3.3117,0.9082 6.7617,1.618 10.2945,1.6024 3.6324,0.0343 6.9821,-1.3356 10.1653,-2.1465 3.216,-0.8258 6.564,-1.0594 9.8141,-0.5477 l 0.249,-1.9316 c -3.519,-0.3645 -7.0979,-0.091 -10.4819,0.7996 -3.3848,0.9035 -6.4992,2.1906 -9.7617,2.173 -3.3035,0.0399 -6.6121,-0.6015 -9.8731,-1.4707 -3.2296,-0.8523 -6.5984,-2.0664 -10.2253,-1.9433 -3.5829,0.1257 -6.9098,1.2832 -10.15,2.2238 -3.2247,0.9539 -6.5454,1.7039 -9.7172,1.1363 -3.2035,-0.5457 -6.2356,-2.364 -9.8106,-2.9117 -3.5519,-0.5207 -7.0726,-0.0918 -10.4476,0.5809 l 0.3172,1.5898"
       inkscape:export-filename="/home/ian/workspace/bwq-profiles/app/images/path3038.png"
       inkscape:export-xdpi="53.894737"
       inkscape:export-ydpi="53.894737" /><path
       inkscape:connector-curvature="0"
       id="path3052"
       style="fill:#1a3571;fill-opacity:1;fill-rule:nonzero;stroke:none"
       d="m 88.6129,29.5695 c -1.0539,0.3438 -6.6738,1.8868 -9.1777,1.8895 -7.5832,0.009 -10.334,-2.2672 -13.9758,-3.0164 -1.9278,-0.3965 -3.961,-0.5207 -5.9492,-0.3606 -3.375,0.2735 -6.3719,1.5489 -9.5575,2.3137 -3.3859,0.8145 -7.0285,1.2258 -10.5664,0.7891 l 26.9657,9.2558 -5.9168,5.5 c 0,0 -13,0 -17.0832,0 -6.1668,0 -6.6668,6.5 0,6.5 3,0 19.0832,0 19.0832,0 L 88.6129,29.5695"
       inkscape:export-filename="/home/ian/workspace/bwq-profiles/app/images/path3038.png"
       inkscape:export-xdpi="53.894737"
       inkscape:export-ydpi="53.894737" /><path
       inkscape:connector-curvature="0"
       id="path3054"
       style="fill:#1a3571;fill-opacity:1;fill-rule:nonzero;stroke:none"
       d="m 100.049,41.6906 c 0,-4.6484 -3.7674,-8.416 -8.4158,-8.416 -4.6484,0 -8.4168,3.7676 -8.4168,8.416 0,4.6485 3.7684,8.4168 8.4168,8.4168 4.6484,0 8.4158,-3.7683 8.4158,-8.4168"
       inkscape:export-filename="/home/ian/workspace/bwq-profiles/app/images/path3038.png"
       inkscape:export-xdpi="53.894737"
       inkscape:export-ydpi="53.894737" /><path
       inkscape:connector-curvature="0"
       id="path3056"
       style="fill:none;stroke:#1a3571;stroke-width:2;stroke-linecap:butt;stroke-linejoin:miter;stroke-miterlimit:10;stroke-dasharray:none;stroke-opacity:1"
       d="M 1,1 H 120.054 V 105.882 H 1 Z"
       inkscape:export-filename="/home/ian/workspace/bwq-profiles/app/images/path3038.png"
       inkscape:export-xdpi="53.894737"
       inkscape:export-ydpi="53.894737" /><text
       xml:space="preserve"
       style="font-style:normal;font-variant:normal;font-weight:normal;font-stretch:normal;line-height:0%;font-family:Arial;-inkscape-font-specification:Arial;letter-spacing:0px;word-spacing:0px;fill:#000000;fill-opacity:1;stroke:none"
       x="140.46924"
       y="-89.652634"
       id="text3839"
       transform="scale(1,-1)"
       inkscape:export-filename="/home/ian/workspace/bwq-profiles/app/images/path3038.png"
       inkscape:export-xdpi="53.894737"
       inkscape:export-ydpi="53.894737"><tspan
         sodipodi:role="line"
         x="140.46924"
         y="-89.652634"
         id="tspan3843"
         style="font-size:16px;line-height:1.25"><tspan
   style="font-weight:bold;font-size:16px"
   id="tspan5925">Sufficient</tspan> bathing </tspan><tspan
         sodipodi:role="line"
         x="140.46924"
         y="-69.652634"
         id="tspan3845"
         style="font-size:16px;line-height:1.25">water quality</tspan></text>
</g></svg>