<?xml version="1.0" encoding="UTF-8" standalone="no"?>
<!-- Created with Inkscape (http://www.inkscape.org/) -->

<svg
   xmlns:dc="http://purl.org/dc/elements/1.1/"
   xmlns:cc="http://creativecommons.org/ns#"
   xmlns:rdf="http://www.w3.org/1999/02/22-rdf-syntax-ns#"
   xmlns:svg="http://www.w3.org/2000/svg"
   xmlns="http://www.w3.org/2000/svg"
   xmlns:sodipodi="http://sodipodi.sourceforge.net/DTD/sodipodi-0.dtd"
   xmlns:inkscape="http://www.inkscape.org/namespaces/inkscape"
   id="svg4008"
   version="1.1"
   inkscape:version="0.92.2 (5c3e80d, 2017-08-06)"
   width="383.80496"
   height="142.50932"
   xml:space="preserve"
   sodipodi:docname="baignade-3-stars.svg"
   inkscape:export-filename="/home/ian/workspace/bwq-profiles/app/images/baignade-3-stars.png"
   inkscape:export-xdpi="53.894737"
   inkscape:export-ydpi="53.894737"
   viewBox="0 0 359.81714 133.60249"><metadata
     id="metadata4014"><rdf:RDF><cc:Work
         rdf:about=""><dc:format>image/svg+xml</dc:format><dc:type
           rdf:resource="http://purl.org/dc/dcmitype/StillImage" /><dc:title /></cc:Work></rdf:RDF></metadata><defs
     id="defs4012" /><sodipodi:namedview
     pagecolor="#ffffff"
     bordercolor="#666666"
     borderopacity="1"
     objecttolerance="10"
     gridtolerance="10"
     guidetolerance="10"
     inkscape:pageopacity="0"
     inkscape:pageshadow="2"
     inkscape:window-width="1920"
     inkscape:window-height="1136"
     id="namedview4010"
     showgrid="false"
     inkscape:zoom="1.5687061"
     inkscape:cx="259.2216"
     inkscape:cy="66.799997"
     inkscape:window-x="0"
     inkscape:window-y="27"
     inkscape:window-maximized="1"
     inkscape:current-layer="g4016"
     fit-margin-top="0"
     fit-margin-left="0"
     fit-margin-right="0"
     fit-margin-bottom="0" /><g
     id="g4016"
     inkscape:groupmode="layer"
     inkscape:label="ink_ext_XXXXXX"
     transform="matrix(1.25,0,0,-1.25,0,133.6025)"><path
       inkscape:connector-curvature="0"
       id="path4026"
       style="fill:#1a3571;fill-opacity:1;fill-rule:nonzero;stroke:none;stroke-opacity:1"
       d="m 140.66,28.119547 h 5.052 l 1.689,4.7949 1.679,-4.7949 h 5.05 l -3.93,-3.2578 1.638,-4.8457 -4.451,2.914 -4.436,-2.914 1.641,4.8457 -3.932,3.2578" /><g
       id="g4100"
       transform="translate(-9.542,0.98574829)"
       style="fill:#1a3571;fill-opacity:1;stroke:none;stroke-opacity:1"><path
         d="m 150.202,42.1777 h 5.051 l 1.69,4.795 1.679,-4.795 h 5.049 l -3.929,-3.2586 1.637,-4.8453 -4.451,2.9137 -4.435,-2.9137 1.64,4.8453 -3.931,3.2586"
         style="fill:#1a3571;fill-opacity:1;fill-rule:nonzero;stroke:none;stroke-opacity:1"
         id="path4024"
         inkscape:connector-curvature="0" /><path
         d="m 168.038,42.1777 h 5.05 l 1.69,4.795 1.68,-4.795 h 5.048 l -3.929,-3.2586 1.638,-4.8453 -4.451,2.9137 -4.435,-2.9137 1.64,4.8453 -3.931,3.2586"
         style="fill:#1a3571;fill-opacity:1;fill-rule:nonzero;stroke:none;stroke-opacity:1"
         id="path4028"
         inkscape:connector-curvature="0" /></g><g
       id="g4095"
       transform="translate(-9.6,-6.1035156e-6)"><path
         d="m 150.26,58.207 h 5.052 l 1.689,4.795 1.679,-4.795 h 5.05 l -3.93,-3.2586 1.638,-4.8449 -4.451,2.9133 -4.436,-2.9133 1.641,4.8449 -3.932,3.2586"
         style="fill:#1a3571;fill-opacity:1;fill-rule:nonzero;stroke:none"
         id="path4020"
         inkscape:connector-curvature="0" /><path
         d="m 168.096,58.207 h 5.051 l 1.689,4.795 1.68,-4.795 h 5.049 l -3.93,-3.2586 1.639,-4.8449 -4.451,2.9133 -4.436,-2.9133 1.641,4.8449 -3.932,3.2586"
         style="fill:#1a3571;fill-opacity:1;fill-rule:nonzero;stroke:none"
         id="path4022"
         inkscape:connector-curvature="0" /><path
         d="m 185.931,58.207 h 5.052 l 1.689,4.795 1.679,-4.795 h 5.05 l -3.93,-3.2586 1.638,-4.8449 -4.451,2.9133 -4.436,-2.9133 1.641,4.8449 -3.932,3.2586"
         style="fill:#1a3571;fill-opacity:1;fill-rule:nonzero;stroke:none"
         id="path4030"
         inkscape:connector-curvature="0" /></g><path
       inkscape:connector-curvature="0"
       id="path4032"
       style="fill:none;fill-opacity:1;stroke:#1a3571;stroke-width:4;stroke-linecap:butt;stroke-linejoin:miter;stroke-miterlimit:10;stroke-dasharray:none;stroke-opacity:1"
       d="m 141.06,11.4215 h 13.165" /><path
       inkscape:connector-curvature="0"
       id="path4034"
       style="fill:#1a3571;fill-opacity:1;fill-rule:nonzero;stroke:none"
       d="m 46.1695,89.209 h 10.9453 l 3.659,10.3879 3.6379,-10.3879 H 75.352 l -8.5125,-7.0606 3.5476,-10.4949 -9.6445,6.3098 -9.6082,-6.3098 3.5527,10.4949 -8.5176,7.0606" /><path
       inkscape:connector-curvature="0"
       id="path4036"
       style="fill:#1a3571;fill-opacity:1;fill-rule:nonzero;stroke:none"
       d="M 9.13711,89.209 H 20.0836 l 3.659,10.3879 3.6379,-10.3879 h 10.9402 l -8.5125,-7.0606 3.5469,-10.4949 -9.6438,6.3098 -9.6082,-6.3098 3.5528,10.4949 -8.51879,7.0606" /><path
       inkscape:connector-curvature="0"
       id="path4038"
       style="fill:none;stroke:#384ca7;stroke-width:0.25;stroke-linecap:butt;stroke-linejoin:miter;stroke-miterlimit:10;stroke-dasharray:none;stroke-opacity:1"
       d="M 9.13711,89.209 H 20.0836 l 3.659,10.3879 3.6379,-10.3879 h 10.9402 l -8.5125,-7.0606 3.5469,-10.4949 -9.6438,6.3098 -9.6082,-6.3098 3.5528,10.4949 z" /><path
       inkscape:connector-curvature="0"
       id="path4040"
       style="fill:#1a3571;fill-opacity:1;fill-rule:nonzero;stroke:none"
       d="m 83.2008,89.209 h 10.9453 l 3.659,10.3879 3.6379,-10.3879 h 10.94 l -8.512,-7.0606 3.547,-10.4949 -9.6442,6.3098 -9.6082,-6.3098 3.5528,10.4949 -8.5176,7.0606" /><path
       inkscape:connector-curvature="0"
       id="path4042"
       style="fill:#112d5d;fill-opacity:1;fill-rule:nonzero;stroke:none"
       d="m 20.5938,23.8492 c 3.2867,-0.6933 6.6527,-1.1015 9.8765,-0.6297 3.2184,0.452 6.2352,2.2508 9.7813,2.8789 3.6168,0.6309 7.1566,-0.2316 10.4242,-1.1972 3.2836,-0.9629 6.4957,-2.0879 9.7722,-2.175 3.2571,-0.0957 6.4524,1.0539 9.7731,1.9687 3.3121,0.9082 6.7617,1.6172 10.2945,1.6028 3.6328,0.0339 6.9821,-1.3372 10.1653,-2.1477 3.216,-0.8262 6.564,-1.0594 9.8141,-0.5477 l 0.249,-1.9316 c -3.519,-0.3644 -7.0979,-0.091 -10.4819,0.7996 -3.3848,0.9035 -6.4992,2.1914 -9.7617,2.1738 -3.3035,0.0403 -6.6117,-0.6023 -9.8731,-1.4707 -3.2289,-0.8523 -6.5984,-2.0671 -10.2253,-1.9433 -3.5821,0.1262 -6.9098,1.2824 -10.15,2.2238 -3.2247,0.9531 -6.5454,1.7031 -9.7172,1.1356 -3.2043,-0.545 -6.2356,-2.3641 -9.8106,-2.9122 -3.5519,-0.5203 -7.0734,-0.0906 -10.4476,0.5821 l 0.3172,1.5898" /><path
       inkscape:connector-curvature="0"
       id="path4044"
       style="fill:#1a3571;fill-opacity:1;fill-rule:nonzero;stroke:none"
       d="m 20.5938,17.8043 c 3.2867,-0.6934 6.6527,-1.1016 9.8765,-0.6297 3.2184,0.452 6.2352,2.2508 9.7813,2.8789 3.6168,0.6309 7.1566,-0.2316 10.4242,-1.1972 3.2836,-0.9629 6.4957,-2.0879 9.7722,-2.175 3.2571,-0.0958 6.4524,1.0539 9.7731,1.9687 3.3121,0.9082 6.7617,1.6172 10.2945,1.6027 3.6328,0.034 6.9821,-1.3371 10.1653,-2.1476 3.216,-0.8262 6.564,-1.0594 9.8141,-0.5477 l 0.249,-1.9316 c -3.519,-0.3645 -7.0979,-0.091 -10.4819,0.7996 -3.3848,0.9035 -6.4992,2.1914 -9.7617,2.1738 -3.3035,0.0403 -6.6117,-0.6023 -9.8731,-1.4707 -3.2289,-0.8523 -6.5984,-2.0672 -10.2253,-1.9433 -3.5821,0.1261 -6.9098,1.2824 -10.15,2.2238 -3.2247,0.9531 -6.5454,1.7031 -9.7172,1.1355 -3.2043,-0.5449 -6.2356,-2.364 -9.8106,-2.9121 -3.5519,-0.5203 -7.0734,-0.0906 -10.4476,0.5821 l 0.3172,1.5898" /><path
       inkscape:connector-curvature="0"
       id="path4046"
       style="fill:#1a3571;fill-opacity:1;fill-rule:nonzero;stroke:none"
       d="m 88.6129,29.5699 c -1.0539,0.3438 -6.6738,1.8867 -9.1777,1.8887 -7.5832,0.0098 -10.334,-2.2676 -13.9758,-3.0156 -1.9278,-0.3965 -3.961,-0.5215 -5.9492,-0.3614 -3.375,0.2735 -6.3719,1.5489 -9.5575,2.3145 -3.3859,0.8144 -7.0285,1.2246 -10.5664,0.7891 l 26.9657,9.2554 -5.9168,5.5 c 0,0 -13,0 -17.0832,0 -6.1668,0 -6.6668,6.5 0,6.5 3,0 19.0832,0 19.0832,0 L 88.6129,29.5699" /><path
       inkscape:connector-curvature="0"
       id="path4048"
       style="fill:#1a3571;fill-opacity:1;fill-rule:nonzero;stroke:none"
       d="m 100.049,41.6906 c 0,-4.6484 -3.7674,-8.4156 -8.4158,-8.4156 -4.6484,0 -8.4168,3.7672 -8.4168,8.4156 0,4.6485 3.7684,8.4168 8.4168,8.4168 4.6484,0 8.4158,-3.7683 8.4158,-8.4168" /><path
       inkscape:connector-curvature="0"
       id="path4050"
       style="fill:none;stroke:#1a3571;stroke-width:2;stroke-linecap:butt;stroke-linejoin:miter;stroke-miterlimit:10;stroke-dasharray:none;stroke-opacity:1"
       d="M 1,1 H 120.055 V 105.882 H 1 Z" /><text
       xml:space="preserve"
       style="font-style:normal;font-variant:normal;font-weight:normal;font-stretch:normal;line-height:0%;font-family:Arial;-inkscape-font-specification:Arial;letter-spacing:0px;word-spacing:0px;fill:#000000;fill-opacity:1;stroke:none"
       x="140.32246"
       y="-90.45369"
       id="text3839"
       transform="scale(1,-1)"><tspan
         sodipodi:role="line"
         x="140.32246"
         y="-90.45369"
         id="tspan3843"
         style="font-size:16px;line-height:1.25"><tspan
   style="font-weight:bold;font-size:16px"
   id="tspan5941">Excellent</tspan> </tspan><tspan
         sodipodi:role="line"
         x="140.32246"
         y="-70.45369"
         id="tspan3845"
         style="font-size:16px;line-height:1.25">bathing water quality</tspan></text>
<g
       id="g974"
       style="fill:#303030;fill-opacity:1"><text
         transform="scale(1,-1)"
         id="text909"
         y="-52.394035"
         x="206.70888"
         style="font-style:normal;font-variant:normal;font-weight:normal;font-stretch:normal;font-size:67.5px;line-height:125%;font-family:Arial;-inkscape-font-specification:Arial;letter-spacing:0px;word-spacing:0px;fill:#303030;fill-opacity:1;stroke:none;stroke-width:0.75px;stroke-linecap:butt;stroke-linejoin:miter;stroke-opacity:1"
         xml:space="preserve"><tspan
           id="tspan913"
           style="font-size:11.99999978px;stroke-width:0.75px;fill:#303030;fill-opacity:1"
           y="-52.394035"
           x="206.70888"
           sodipodi:role="line">excellent</tspan><tspan
           id="tspan911"
           style="stroke-width:0.75px;fill:#303030;fill-opacity:1"
           y="47.009579"
           x="206.70888"
           sodipodi:role="line" /></text>
<text
         transform="scale(1,-1)"
         id="text909-3"
         y="-37.706715"
         x="206.70888"
         style="font-style:normal;font-variant:normal;font-weight:normal;font-stretch:normal;font-size:67.50000763px;line-height:125%;font-family:Arial;-inkscape-font-specification:Arial;letter-spacing:0px;word-spacing:0px;fill:#303030;fill-opacity:1;stroke:none;stroke-width:0.75px;stroke-linecap:butt;stroke-linejoin:miter;stroke-opacity:1"
         xml:space="preserve"><tspan
           id="tspan913-6"
           style="font-size:11.99999978px;stroke-width:0.75px;fill:#303030;fill-opacity:1"
           y="-37.706715"
           x="206.70888"
           sodipodi:role="line">good</tspan><tspan
           id="tspan911-7"
           style="stroke-width:0.75px;fill:#303030;fill-opacity:1"
           y="61.696911"
           x="206.70888"
           sodipodi:role="line" /></text>
<text
         transform="scale(1,-1)"
         id="text909-5"
         y="-23.019396"
         x="206.70888"
         style="font-style:normal;font-variant:normal;font-weight:normal;font-stretch:normal;font-size:67.50000763px;line-height:125%;font-family:Arial;-inkscape-font-specification:Arial;letter-spacing:0px;word-spacing:0px;fill:#303030;fill-opacity:1;stroke:none;stroke-width:0.75px;stroke-linecap:butt;stroke-linejoin:miter;stroke-opacity:1"
         xml:space="preserve"><tspan
           id="tspan913-3"
           style="font-size:11.99999978px;stroke-width:0.75px;fill:#303030;fill-opacity:1"
           y="-23.019396"
           x="206.70888"
           sodipodi:role="line">sufficient</tspan><tspan
           id="tspan911-5"
           style="stroke-width:0.75px;fill:#303030;fill-opacity:1"
           y="76.384232"
           x="206.70888"
           sodipodi:role="line" /></text>
<text
         transform="scale(1,-1)"
         id="text909-6"
         y="-8.3320761"
         x="206.70888"
         style="font-style:normal;font-variant:normal;font-weight:normal;font-stretch:normal;font-size:67.50000763px;line-height:125%;font-family:Arial;-inkscape-font-specification:Arial;letter-spacing:0px;word-spacing:0px;fill:#303030;fill-opacity:1;stroke:none;stroke-width:0.75px;stroke-linecap:butt;stroke-linejoin:miter;stroke-opacity:1"
         xml:space="preserve"><tspan
           id="tspan913-2"
           style="font-size:11.99999978px;stroke-width:0.75px;fill:#303030;fill-opacity:1"
           y="-8.3320761"
           x="206.70888"
           sodipodi:role="line">poor</tspan><tspan
           id="tspan911-9"
           style="stroke-width:0.75px;fill:#303030;fill-opacity:1"
           y="91.071548"
           x="206.70888"
           sodipodi:role="line" /></text>
</g></g></svg>