<?xml version="1.0" encoding="UTF-8" standalone="no"?>
<!-- Created with Inkscape (http://www.inkscape.org/) -->

<svg
   xmlns:dc="http://purl.org/dc/elements/1.1/"
   xmlns:cc="http://creativecommons.org/ns#"
   xmlns:rdf="http://www.w3.org/1999/02/22-rdf-syntax-ns#"
   xmlns:svg="http://www.w3.org/2000/svg"
   xmlns="http://www.w3.org/2000/svg"
   xmlns:sodipodi="http://sodipodi.sourceforge.net/DTD/sodipodi-0.dtd"
   xmlns:inkscape="http://www.inkscape.org/namespaces/inkscape"
   id="svg4650"
   version="1.1"
   inkscape:version="0.92.2 (5c3e80d, 2017-08-06)"
   width="340.53262"
   height="144.64134"
   xml:space="preserve"
   sodipodi:docname="baignade-2-stars.svg"
   inkscape:export-filename="/home/ian/workspace/bwq-profiles/app/images/baignade-2-stars.png"
   inkscape:export-xdpi="53.894737"
   inkscape:export-ydpi="53.894737"
   viewBox="0 0 319.24933 135.60126"><metadata
     id="metadata4656"><rdf:RDF><cc:Work
         rdf:about=""><dc:format>image/svg+xml</dc:format><dc:type
           rdf:resource="http://purl.org/dc/dcmitype/StillImage" /><dc:title></dc:title></cc:Work></rdf:RDF></metadata><defs
     id="defs4654" /><sodipodi:namedview
     pagecolor="#ffffff"
     bordercolor="#666666"
     borderopacity="1"
     objecttolerance="10"
     gridtolerance="10"
     guidetolerance="10"
     inkscape:pageopacity="0"
     inkscape:pageshadow="2"
     inkscape:window-width="1809"
     inkscape:window-height="979"
     id="namedview4652"
     showgrid="false"
     inkscape:zoom="3.1456154"
     inkscape:cx="230.10474"
     inkscape:cy="80.516103"
     inkscape:window-x="1969"
     inkscape:window-y="37"
     inkscape:window-maximized="0"
     inkscape:current-layer="g4658"
     fit-margin-top="1"
     fit-margin-left="1"
     fit-margin-right="1"
     fit-margin-bottom="1" /><g
     id="g4658"
     inkscape:groupmode="layer"
     inkscape:label="ink_ext_XXXXXX"
     transform="matrix(1.25,0,0,-1.25,1,134.60125)"><path
       inkscape:connector-curvature="0"
       id="path4668"
       style="fill:#999999;fill-opacity:1;fill-rule:nonzero;stroke:none"
       d="m 140.137,28.143818 h 5.052 l 1.69,4.795 1.678,-4.795 h 5.05 l -3.93,-3.2597 1.638,-4.8438 -4.451,2.9121 -4.436,-2.9121 1.641,4.8438 -3.932,3.2597" /><g
       id="g5244"
       transform="translate(-10.042,0.98503418)"><path
         d="m 149.679,42.2031 h 5.051 l 1.69,4.7949 1.679,-4.7949 h 5.049 l -3.929,-3.2597 1.637,-4.8438 -4.451,2.9121 -4.435,-2.9121 1.64,4.8438 -3.931,3.2597"
         style="fill:#1a3571;fill-opacity:1;fill-rule:nonzero;stroke:none"
         id="path4666"
         inkscape:connector-curvature="0" /><path
         d="m 167.515,42.2031 h 5.05 l 1.69,4.7949 1.68,-4.7949 h 5.048 l -3.929,-3.2597 1.638,-4.8438 -4.451,2.9121 -4.435,-2.9121 1.64,4.8438 -3.931,3.2597"
         style="fill:#1a3571;fill-opacity:1;fill-rule:nonzero;stroke:none"
         id="path4670"
         inkscape:connector-curvature="0" /></g><g
       id="g5239"
       transform="translate(-9.6)"
       style="fill:#999999;fill-opacity:1;stroke:none"><path
         d="m 149.737,58.2324 h 5.052 l 1.69,4.7949 1.678,-4.7949 h 5.05 l -3.93,-3.2597 1.638,-4.8438 -4.451,2.9121 -4.436,-2.9121 1.641,4.8438 -3.932,3.2597"
         style="fill:#999999;fill-opacity:1;fill-rule:nonzero;stroke:none"
         id="path4662"
         inkscape:connector-curvature="0" /><path
         d="m 167.573,58.2324 h 5.051 l 1.689,4.7949 1.68,-4.7949 h 5.049 l -3.93,-3.2597 1.639,-4.8438 -4.451,2.9121 -4.436,-2.9121 1.641,4.8438 -3.932,3.2597"
         style="fill:#999999;fill-opacity:1;fill-rule:nonzero;stroke:none"
         id="path4664"
         inkscape:connector-curvature="0" /><path
         d="m 185.408,58.2324 h 5.052 l 1.689,4.7949 1.679,-4.7949 h 5.05 l -3.93,-3.2597 1.638,-4.8438 -4.451,2.9121 -4.436,-2.9121 1.641,4.8438 -3.932,3.2597"
         style="fill:#999999;fill-opacity:1;fill-rule:nonzero;stroke:none"
         id="path4672"
         inkscape:connector-curvature="0" /></g><path
       inkscape:connector-curvature="0"
       id="path4674"
       style="fill:#999999;fill-opacity:1;stroke:#999999;stroke-width:4;stroke-linecap:butt;stroke-linejoin:miter;stroke-miterlimit:10;stroke-dasharray:none;stroke-opacity:1"
       d="m 140.037,11.4453 h 13.165" /><path
       inkscape:connector-curvature="0"
       id="path4676"
       style="fill:#1a3571;fill-opacity:1;fill-rule:nonzero;stroke:none"
       d="M 25.1785,88.2676 H 36.125 l 3.6594,10.3887 3.6375,-10.3887 h 10.9402 l -8.5125,-7.0606 3.5469,-10.4941 -9.6438,6.3086 -9.6082,-6.3086 3.5528,10.4941 -8.5188,7.0606" /><path
       inkscape:connector-curvature="0"
       id="path4678"
       style="fill:#1a3571;fill-opacity:1;fill-rule:nonzero;stroke:none"
       d="m 62.1633,88.2676 h 10.9453 l 3.659,10.3887 3.6379,-10.3887 h 10.9402 l -8.5129,-7.0606 3.5481,-10.4941 -9.6446,6.3086 -9.6086,-6.3086 3.5532,10.4941 -8.5176,7.0606" /><path
       inkscape:connector-curvature="0"
       id="path4680"
       style="fill:none;stroke:#1a3571;stroke-width:2;stroke-linecap:butt;stroke-linejoin:miter;stroke-miterlimit:10;stroke-dasharray:none;stroke-opacity:1"
       d="M 1,1 H 120.055 V 105.881 H 1 Z" /><path
       inkscape:connector-curvature="0"
       id="path4682"
       style="fill:#1a3571;fill-opacity:1;fill-rule:nonzero;stroke:none"
       d="m 20.5941,23.7656 c 3.2864,-0.6933 6.6524,-1.0996 9.877,-0.6277 3.2184,0.4519 6.2355,2.2488 9.7812,2.8789 3.6165,0.6309 7.1563,-0.2316 10.4239,-1.1984 3.2832,-0.9637 6.4957,-2.0899 9.7718,-2.1758 3.2567,-0.0938 6.4528,1.0558 9.7731,1.9687 3.3121,0.9094 6.7625,1.6184 10.2949,1.6028 3.6324,0.0339 6.982,-1.3352 10.1653,-2.1457 3.2164,-0.8262 6.5644,-1.0594 9.8147,-0.5477 l 0.249,-1.9316 c -3.5192,-0.3645 -7.0985,-0.0911 -10.4821,0.7996 -3.3852,0.9035 -6.4996,2.1894 -9.7617,2.1718 -3.3043,0.0403 -6.6125,-0.6003 -9.8735,-1.4707 -3.2308,-0.8515 -6.5984,-2.0652 -10.2254,-1.9433 -3.5832,0.1262 -6.9097,1.2832 -10.15,2.2246 -3.225,0.9531 -6.5453,1.7043 -9.7171,1.1367 -3.2036,-0.5457 -6.236,-2.364 -9.8106,-2.9121 -3.5512,-0.5203 -7.0726,-0.0926 -10.4476,0.5801 l 0.3171,1.5898" /><path
       inkscape:connector-curvature="0"
       id="path4684"
       style="fill:#1a3571;fill-opacity:1;fill-rule:nonzero;stroke:none"
       d="m 20.5941,17.7207 c 3.2864,-0.6934 6.6524,-1.0996 9.877,-0.6277 3.2184,0.4519 6.2355,2.2488 9.7812,2.8789 3.6165,0.6308 7.1563,-0.2317 10.4239,-1.1985 3.2832,-0.9636 6.4957,-2.0898 9.7718,-2.1757 3.2567,-0.0938 6.4528,1.0558 9.7731,1.9687 3.3121,0.9094 6.7625,1.6184 10.2949,1.6027 3.6324,0.034 6.982,-1.3351 10.1653,-2.1457 3.2164,-0.8261 6.5644,-1.0593 9.8147,-0.5476 l 0.249,-1.9317 c -3.5192,-0.3644 -7.0985,-0.091 -10.4821,0.7997 -3.3852,0.9035 -6.4996,2.1894 -9.7617,2.1718 -3.3043,0.0403 -6.6125,-0.6004 -9.8735,-1.4707 -3.2308,-0.8515 -6.5984,-2.0652 -10.2254,-1.9433 -3.5832,0.1261 -6.9097,1.2832 -10.15,2.2246 -3.225,0.9531 -6.5453,1.7043 -9.7171,1.1367 -3.2036,-0.5457 -6.236,-2.3641 -9.8106,-2.9121 -3.5512,-0.5203 -7.0726,-0.0926 -10.4476,0.5801 l 0.3171,1.5898" /><path
       inkscape:connector-curvature="0"
       id="path4686"
       style="fill:#1a3571;fill-opacity:1;fill-rule:nonzero;stroke:none"
       d="M 88.6133,29.4863 C 87.5598,29.8301 81.9395,31.373 79.4355,31.377 71.8523,31.3848 69.1016,29.1094 65.4602,28.3594 63.532,27.9629 61.4988,27.8398 59.5105,28 c -3.375,0.2734 -6.3718,1.5488 -9.5574,2.3125 -3.3855,0.8145 -7.0285,1.2266 -10.5664,0.7891 l 26.9656,9.2558 -5.9168,5.5 c 0,0 -13,0 -17.0832,0 -6.1668,0 -6.6668,6.5 0,6.5 3,0 19.0832,0 19.0832,0 L 88.6133,29.4863" /><path
       inkscape:connector-curvature="0"
       id="path4688"
       style="fill:#1a3571;fill-opacity:1;fill-rule:nonzero;stroke:none"
       d="m 100.05,41.6074 c 0,-4.6484 -3.768,-8.416 -8.416,-8.416 -4.6485,0 -8.4172,3.7676 -8.4172,8.416 0,4.6485 3.7687,8.418 8.4172,8.418 4.648,0 8.416,-3.7695 8.416,-8.418" /><text
       xml:space="preserve"
       style="font-style:normal;font-variant:normal;font-weight:normal;font-stretch:normal;line-height:0%;font-family:Arial;-inkscape-font-specification:Arial;letter-spacing:0px;word-spacing:0px;fill:#000000;fill-opacity:1;stroke:none"
       x="139.29947"
       y="-88.446236"
       id="text3839"
       transform="scale(1,-1)"><tspan
         sodipodi:role="line"
         x="139.29947"
         y="-88.446236"
         id="tspan3843"
         style="font-size:16px;line-height:1.25"><tspan
   style="font-weight:bold;font-size:16px"
   id="tspan5933">Good</tspan> bathing </tspan><tspan
         sodipodi:role="line"
         x="139.29947"
         y="-68.446236"
         id="tspan3845"
         style="font-size:16px;line-height:1.25">water quality</tspan></text>
</g></svg>