<?xml version="1.0" encoding="UTF-8" standalone="no"?>
<!-- Created with Inkscape (http://www.inkscape.org/) -->

<svg
   xmlns:dc="http://purl.org/dc/elements/1.1/"
   xmlns:cc="http://creativecommons.org/ns#"
   xmlns:rdf="http://www.w3.org/1999/02/22-rdf-syntax-ns#"
   xmlns:svg="http://www.w3.org/2000/svg"
   xmlns="http://www.w3.org/2000/svg"
   xmlns:sodipodi="http://sodipodi.sourceforge.net/DTD/sodipodi-0.dtd"
   xmlns:inkscape="http://www.inkscape.org/namespaces/inkscape"
   id="svg5267"
   version="1.1"
   inkscape:version="0.91 r13725"
   width="291.5462"
   height="133.60249"
   xml:space="preserve"
   sodipodi:docname="baignade-no-stars.svg"
   inkscape:export-filename="/home/ian/workspace/bwq-profiles/app/images/baignade-no-stars.png"
   inkscape:export-xdpi="53.894737"
   inkscape:export-ydpi="53.894737"><metadata
     id="metadata5273"><rdf:RDF><cc:Work
         rdf:about=""><dc:format>image/svg+xml</dc:format><dc:type
           rdf:resource="http://purl.org/dc/dcmitype/StillImage" /><dc:title></dc:title></cc:Work></rdf:RDF></metadata><defs
     id="defs5271" /><sodipodi:namedview
     pagecolor="#ffffff"
     bordercolor="#666666"
     borderopacity="1"
     objecttolerance="10"
     gridtolerance="10"
     guidetolerance="10"
     inkscape:pageopacity="0"
     inkscape:pageshadow="2"
     inkscape:window-width="1511"
     inkscape:window-height="945"
     id="namedview5269"
     showgrid="false"
     inkscape:zoom="1.5728077"
     inkscape:cx="160.59422"
     inkscape:cy="66.800017"
     inkscape:window-x="0"
     inkscape:window-y="27"
     inkscape:window-maximized="0"
     inkscape:current-layer="g5275"
     showborder="true"
     fit-margin-top="0"
     fit-margin-left="0"
     fit-margin-right="0"
     fit-margin-bottom="0" /><g
     id="g5275"
     inkscape:groupmode="layer"
     inkscape:label="ink_ext_XXXXXX"
     transform="matrix(1.25,0,0,-1.25,0,133.6025)"><path
       inkscape:connector-curvature="0"
       id="path5285"
       style="fill:#999999;fill-opacity:1;fill-rule:nonzero;stroke:none"
       d="m 140.137,25.178432 5.052,0 1.69,4.795 1.678,-4.795 5.05,0 -3.93,-3.2585 1.638,-4.845 -4.451,2.9133 -4.436,-2.9133 1.641,4.845 -3.932,3.2585" /><g
       id="g5858"
       transform="translate(-9.542,-0.49763184)"
       style="fill:#999999;fill-opacity:1;stroke:none"><path
         d="m 149.679,42.2031 5.051,0 1.69,4.7949 1.679,-4.7949 5.049,0 -3.929,-3.2586 1.637,-4.8445 -4.451,2.9129 -4.435,-2.9129 1.64,4.8445 -3.931,3.2586"
         style="fill:#999999;fill-opacity:1;fill-rule:nonzero;stroke:none"
         id="path5283"
         inkscape:connector-curvature="0" /><path
         d="m 167.515,42.2031 5.05,0 1.69,4.7949 1.68,-4.7949 5.048,0 -3.929,-3.2586 1.638,-4.8445 -4.451,2.9129 -4.435,-2.9129 1.64,4.8445 -3.931,3.2586"
         style="fill:#999999;fill-opacity:1;fill-rule:nonzero;stroke:none"
         id="path5287"
         inkscape:connector-curvature="0" /></g><g
       id="g5853"
       transform="translate(-9.6,0)"
       style="fill:#999999;fill-opacity:1;stroke:none"><path
         d="m 149.737,58.2324 5.052,0 1.69,4.7949 1.678,-4.7949 5.05,0 -3.93,-3.2586 1.638,-4.8445 -4.451,2.9129 -4.436,-2.9129 1.641,4.8445 -3.932,3.2586"
         style="fill:#999999;fill-opacity:1;fill-rule:nonzero;stroke:none"
         id="path5279"
         inkscape:connector-curvature="0" /><path
         d="m 167.573,58.2324 5.051,0 1.689,4.7949 1.68,-4.7949 5.049,0 -3.93,-3.2586 1.639,-4.8445 -4.451,2.9129 -4.436,-2.9129 1.641,4.8445 -3.932,3.2586"
         style="fill:#999999;fill-opacity:1;fill-rule:nonzero;stroke:none"
         id="path5281"
         inkscape:connector-curvature="0" /><path
         d="m 185.408,58.2324 5.052,0 1.689,4.7949 1.679,-4.7949 5.05,0 -3.93,-3.2586 1.638,-4.8445 -4.451,2.9129 -4.436,-2.9129 1.641,4.8445 -3.932,3.2586"
         style="fill:#999999;fill-opacity:1;fill-rule:nonzero;stroke:none"
         id="path5289"
         inkscape:connector-curvature="0" /></g><path
       inkscape:connector-curvature="0"
       id="path5291"
       style="fill:none;stroke:#1a3571;stroke-width:4;stroke-linecap:butt;stroke-linejoin:miter;stroke-miterlimit:10;stroke-dasharray:none;stroke-opacity:1"
       d="m 142.137,9.8465 13.165,0" /><path
       inkscape:connector-curvature="0"
       id="path5293"
       style="fill:none;stroke:#1a3571;stroke-width:4;stroke-linecap:butt;stroke-linejoin:miter;stroke-miterlimit:10;stroke-dasharray:none;stroke-opacity:1"
       d="m 50.0551,88.623 15.0465,0" /><path
       inkscape:connector-curvature="0"
       id="path5295"
       style="fill:none;stroke:#1a3571;stroke-width:2;stroke-linecap:butt;stroke-linejoin:miter;stroke-miterlimit:10;stroke-dasharray:none;stroke-opacity:1"
       d="m 1,1 119.055,0 0,104.882 L 1,105.882 1,1 Z" /><path
       inkscape:connector-curvature="0"
       id="path5297"
       style="fill:#1a3571;fill-opacity:1;fill-rule:nonzero;stroke:none"
       d="m 20.5941,23.7668 c 3.2864,-0.6934 6.6524,-1.1004 9.8766,-0.6289 3.2188,0.4519 6.2356,2.25 9.7813,2.8789 3.6168,0.6309 7.1566,-0.2316 10.4242,-1.1984 3.2832,-0.9629 6.4957,-2.0887 9.7718,-2.1746 3.2571,-0.095 6.4528,1.0546 9.7739,1.9687 3.3113,0.9082 6.7617,1.618 10.2941,1.6023 3.6324,0.0344 6.982,-1.3355 10.1653,-2.1464 3.2164,-0.8258 6.5644,-1.0594 9.8147,-0.5477 l 0.249,-1.9316 c -3.5192,-0.3641 -7.0985,-0.0911 -10.4821,0.7996 -3.3852,0.9035 -6.4996,2.1906 -9.7617,2.173 -3.3039,0.0399 -6.6125,-0.6015 -9.8735,-1.4707 -3.2297,-0.8527 -6.5984,-2.0664 -10.2254,-1.9433 -3.5824,0.1257 -6.9097,1.2832 -10.15,2.2238 -3.2246,0.9539 -6.5453,1.7039 -9.7171,1.1367 C 37.3316,23.9621 34.2996,22.1438 30.7246,21.5961 27.173,21.0754 23.652,21.5043 20.277,22.177 l 0.3171,1.5898" /><path
       inkscape:connector-curvature="0"
       id="path5299"
       style="fill:#1a3571;fill-opacity:1;fill-rule:nonzero;stroke:none"
       d="m 20.5941,17.7219 c 3.2864,-0.6934 6.6524,-1.1004 9.8766,-0.6289 3.2188,0.4519 6.2356,2.25 9.7813,2.8789 3.6168,0.6308 7.1566,-0.2317 10.4242,-1.1985 3.2832,-0.9629 6.4957,-2.0886 9.7718,-2.1746 3.2571,-0.0945 6.4528,1.0547 9.7739,1.9688 3.3113,0.9082 6.7617,1.6179 10.2941,1.6023 3.6324,0.0344 6.982,-1.3359 10.1653,-2.1465 3.2164,-0.8261 6.5644,-1.0593 9.8147,-0.5476 l 0.249,-1.9317 c -3.5192,-0.364 -7.0985,-0.091 -10.4821,0.7997 -3.3852,0.9035 -6.4996,2.1906 -9.7617,2.173 -3.3039,0.0398 -6.6125,-0.6016 -9.8735,-1.4707 -3.2297,-0.8527 -6.5984,-2.0664 -10.2254,-1.9434 -3.5824,0.1262 -6.9097,1.2832 -10.15,2.2235 -3.2246,0.9543 -6.5453,1.7043 -9.7171,1.1371 C 37.3316,17.9172 34.2996,16.0988 30.7246,15.5508 27.173,15.0305 23.652,15.459 20.277,16.132 l 0.3171,1.5899" /><path
       inkscape:connector-curvature="0"
       id="path5301"
       style="fill:#1a3571;fill-opacity:1;fill-rule:nonzero;stroke:none"
       d="m 88.6133,29.4875 c -1.0535,0.3438 -6.6738,1.8867 -9.1778,1.8895 -7.5832,0.0089 -10.3339,-2.2676 -13.9753,-3.0165 -1.9282,-0.3964 -3.9614,-0.5207 -5.9497,-0.3601 -3.375,0.273 -6.3718,1.5484 -9.5574,2.3133 -3.3855,0.8144 -7.0285,1.2254 -10.5664,0.789 l 26.9656,9.2559 -5.9168,5.5 c 0,0 -13,0 -17.0832,0 -6.1668,0 -6.6668,6.5 0,6.5 3,0 19.0832,0 19.0832,0 L 88.6133,29.4875" /><path
       inkscape:connector-curvature="0"
       id="path5303"
       style="fill:#1a3571;fill-opacity:1;fill-rule:nonzero;stroke:none"
       d="m 100.05,41.6086 c 0,-4.6484 -3.768,-8.416 -8.416,-8.416 -4.6485,0 -8.4172,3.7676 -8.4172,8.416 0,4.6484 3.7687,8.4172 8.4172,8.4172 4.648,0 8.416,-3.7688 8.416,-8.4172" /><text
       xml:space="preserve"
       style="font-style:normal;font-variant:normal;font-weight:normal;font-stretch:normal;font-size:9.60000038px;line-height:125%;font-family:Arial;-inkscape-font-specification:Arial;letter-spacing:0px;word-spacing:0px;fill:#000000;fill-opacity:1;stroke:none"
       x="139.79947"
       y="-90.750603"
       id="text3839"
       sodipodi:linespacing="125%"
       transform="scale(1,-1)"><tspan
         sodipodi:role="line"
         x="139.79947"
         y="-90.750603"
         id="tspan3843"
         style="font-size:16px"><tspan
   id="tspan5943"
   style="font-weight:bold;font-size:16px">Poor </tspan>bathing </tspan><tspan
         sodipodi:role="line"
         x="139.79947"
         y="-70.750603"
         id="tspan3845"
         style="font-size:16px">water quality</tspan></text>
</g></svg>