<?xml version="1.0" encoding="UTF-8" standalone="no"?>
<!-- Created with Inkscape (http://www.inkscape.org/) -->

<svg
   xmlns:dc="http://purl.org/dc/elements/1.1/"
   xmlns:cc="http://creativecommons.org/ns#"
   xmlns:rdf="http://www.w3.org/1999/02/22-rdf-syntax-ns#"
   xmlns:svg="http://www.w3.org/2000/svg"
   xmlns="http://www.w3.org/2000/svg"
   xmlns:sodipodi="http://sodipodi.sourceforge.net/DTD/sodipodi-0.dtd"
   xmlns:inkscape="http://www.inkscape.org/namespaces/inkscape"
   id="svg5267"
   version="1.1"
   inkscape:version="0.92.2 (5c3e80d, 2017-08-06)"
   width="552.92529"
   height="144.00995"
   xml:space="preserve"
   sodipodi:docname="baignade-no-stars-no-bathing.svg"
   inkscape:export-filename="/home/ian/workspace/bwq-profiles/app/images/baignade-no-stars.png"
   inkscape:export-xdpi="53.894737"
   inkscape:export-ydpi="53.894737"
   viewBox="0 0 518.36746 135.00932"><metadata
     id="metadata5273"><rdf:RDF><cc:Work
         rdf:about=""><dc:format>image/svg+xml</dc:format><dc:type
           rdf:resource="http://purl.org/dc/dcmitype/StillImage" /><dc:title /></cc:Work></rdf:RDF></metadata><defs
     id="defs5271" /><sodipodi:namedview
     pagecolor="#ffffff"
     bordercolor="#666666"
     borderopacity="1"
     objecttolerance="10"
     gridtolerance="10"
     guidetolerance="10"
     inkscape:pageopacity="0"
     inkscape:pageshadow="2"
     inkscape:window-width="1920"
     inkscape:window-height="1136"
     id="namedview5269"
     showgrid="false"
     inkscape:zoom="1.5728077"
     inkscape:cx="381.24244"
     inkscape:cy="254.36267"
     inkscape:window-x="0"
     inkscape:window-y="27"
     inkscape:window-maximized="1"
     inkscape:current-layer="g5275"
     fit-margin-top="0"
     fit-margin-left="0"
     fit-margin-right="0"
     fit-margin-bottom="0" /><g
     id="g5275"
     inkscape:groupmode="layer"
     inkscape:label="ink_ext_XXXXXX"
     transform="matrix(1.25,0,0,-1.25,0,135.00933)"><path
       inkscape:connector-curvature="0"
       id="path5285"
       style="fill:#1a3571;fill-opacity:1;fill-rule:nonzero;stroke:none"
       d="m 140.137,25.178432 h 5.052 l 1.69,4.795 1.678,-4.795 h 5.05 l -3.93,-3.2585 1.638,-4.845 -4.451,2.9133 -4.436,-2.9133 1.641,4.845 -3.932,3.2585" /><g
       id="g5858"
       transform="translate(-9.542,-0.49763184)"
       style="fill:#1a3571;fill-opacity:1;stroke:none"><path
         d="m 149.679,42.2031 h 5.051 l 1.69,4.7949 1.679,-4.7949 h 5.049 l -3.929,-3.2586 1.637,-4.8445 -4.451,2.9129 -4.435,-2.9129 1.64,4.8445 -3.931,3.2586"
         style="fill:#1a3571;fill-opacity:1;fill-rule:nonzero;stroke:none"
         id="path5283"
         inkscape:connector-curvature="0" /><path
         d="m 167.515,42.2031 h 5.05 l 1.69,4.7949 1.68,-4.7949 h 5.048 l -3.929,-3.2586 1.638,-4.8445 -4.451,2.9129 -4.435,-2.9129 1.64,4.8445 -3.931,3.2586"
         style="fill:#1a3571;fill-opacity:1;fill-rule:nonzero;stroke:none"
         id="path5287"
         inkscape:connector-curvature="0" /></g><g
       id="g5853"
       transform="translate(-9.6)"
       style="fill:#1a3571;fill-opacity:1;stroke:none"><path
         d="m 149.737,58.2324 h 5.052 l 1.69,4.7949 1.678,-4.7949 h 5.05 l -3.93,-3.2586 1.638,-4.8445 -4.451,2.9129 -4.436,-2.9129 1.641,4.8445 -3.932,3.2586"
         style="fill:#1a3571;fill-opacity:1;fill-rule:nonzero;stroke:none"
         id="path5279"
         inkscape:connector-curvature="0" /><path
         d="m 167.573,58.2324 h 5.051 l 1.689,4.7949 1.68,-4.7949 h 5.049 l -3.93,-3.2586 1.639,-4.8445 -4.451,2.9129 -4.436,-2.9129 1.641,4.8445 -3.932,3.2586"
         style="fill:#1a3571;fill-opacity:1;fill-rule:nonzero;stroke:none"
         id="path5281"
         inkscape:connector-curvature="0" /><path
         d="m 185.408,58.2324 h 5.052 l 1.689,4.7949 1.679,-4.7949 h 5.05 l -3.93,-3.2586 1.638,-4.8445 -4.451,2.9129 -4.436,-2.9129 1.641,4.8445 -3.932,3.2586"
         style="fill:#1a3571;fill-opacity:1;fill-rule:nonzero;stroke:none"
         id="path5289"
         inkscape:connector-curvature="0" /></g><path
       inkscape:connector-curvature="0"
       id="path5291"
       style="fill:none;stroke:#1a3571;stroke-width:4;stroke-linecap:butt;stroke-linejoin:miter;stroke-miterlimit:10;stroke-dasharray:none;stroke-opacity:1"
       d="m 142.137,9.8465 h 13.165" /><path
       inkscape:connector-curvature="0"
       id="path5293"
       style="fill:none;stroke:#1a3571;stroke-width:4;stroke-linecap:butt;stroke-linejoin:miter;stroke-miterlimit:10;stroke-dasharray:none;stroke-opacity:1"
       d="M 50.0551,88.623 H 65.1016" /><path
       inkscape:connector-curvature="0"
       id="path5295"
       style="fill:none;stroke:#1a3571;stroke-width:2;stroke-linecap:butt;stroke-linejoin:miter;stroke-miterlimit:10;stroke-dasharray:none;stroke-opacity:1"
       d="M 1,1 H 120.055 V 105.882 H 1 Z" /><path
       inkscape:connector-curvature="0"
       id="path5297"
       style="fill:#1a3571;fill-opacity:1;fill-rule:nonzero;stroke:none"
       d="m 20.5941,23.7668 c 3.2864,-0.6934 6.6524,-1.1004 9.8766,-0.6289 3.2188,0.4519 6.2356,2.25 9.7813,2.8789 3.6168,0.6309 7.1566,-0.2316 10.4242,-1.1984 3.2832,-0.9629 6.4957,-2.0887 9.7718,-2.1746 3.2571,-0.095 6.4528,1.0546 9.7739,1.9687 3.3113,0.9082 6.7617,1.618 10.2941,1.6023 3.6324,0.0344 6.982,-1.3355 10.1653,-2.1464 3.2164,-0.8258 6.5644,-1.0594 9.8147,-0.5477 l 0.249,-1.9316 c -3.5192,-0.3641 -7.0985,-0.0911 -10.4821,0.7996 -3.3852,0.9035 -6.4996,2.1906 -9.7617,2.173 -3.3039,0.0399 -6.6125,-0.6015 -9.8735,-1.4707 -3.2297,-0.8527 -6.5984,-2.0664 -10.2254,-1.9433 -3.5824,0.1257 -6.9097,1.2832 -10.15,2.2238 -3.2246,0.9539 -6.5453,1.7039 -9.7171,1.1367 C 37.3316,23.9621 34.2996,22.1438 30.7246,21.5961 27.173,21.0754 23.652,21.5043 20.277,22.177 l 0.3171,1.5898" /><path
       inkscape:connector-curvature="0"
       id="path5299"
       style="fill:#1a3571;fill-opacity:1;fill-rule:nonzero;stroke:none"
       d="m 20.5941,17.7219 c 3.2864,-0.6934 6.6524,-1.1004 9.8766,-0.6289 3.2188,0.4519 6.2356,2.25 9.7813,2.8789 3.6168,0.6308 7.1566,-0.2317 10.4242,-1.1985 3.2832,-0.9629 6.4957,-2.0886 9.7718,-2.1746 3.2571,-0.0945 6.4528,1.0547 9.7739,1.9688 3.3113,0.9082 6.7617,1.6179 10.2941,1.6023 3.6324,0.0344 6.982,-1.3359 10.1653,-2.1465 3.2164,-0.8261 6.5644,-1.0593 9.8147,-0.5476 l 0.249,-1.9317 c -3.5192,-0.364 -7.0985,-0.091 -10.4821,0.7997 -3.3852,0.9035 -6.4996,2.1906 -9.7617,2.173 -3.3039,0.0398 -6.6125,-0.6016 -9.8735,-1.4707 -3.2297,-0.8527 -6.5984,-2.0664 -10.2254,-1.9434 -3.5824,0.1262 -6.9097,1.2832 -10.15,2.2235 -3.2246,0.9543 -6.5453,1.7043 -9.7171,1.1371 C 37.3316,17.9172 34.2996,16.0988 30.7246,15.5508 27.173,15.0305 23.652,15.459 20.277,16.132 l 0.3171,1.5899" /><path
       inkscape:connector-curvature="0"
       id="path5301"
       style="fill:#1a3571;fill-opacity:1;fill-rule:nonzero;stroke:none"
       d="m 88.6133,29.4875 c -1.0535,0.3438 -6.6738,1.8867 -9.1778,1.8895 -7.5832,0.0089 -10.3339,-2.2676 -13.9753,-3.0165 -1.9282,-0.3964 -3.9614,-0.5207 -5.9497,-0.3601 -3.375,0.273 -6.3718,1.5484 -9.5574,2.3133 -3.3855,0.8144 -7.0285,1.2254 -10.5664,0.789 l 26.9656,9.2559 -5.9168,5.5 c 0,0 -13,0 -17.0832,0 -6.1668,0 -6.6668,6.5 0,6.5 3,0 19.0832,0 19.0832,0 L 88.6133,29.4875" /><path
       inkscape:connector-curvature="0"
       id="path5303"
       style="fill:#1a3571;fill-opacity:1;fill-rule:nonzero;stroke:none"
       d="m 100.05,41.6086 c 0,-4.6484 -3.768,-8.416 -8.416,-8.416 -4.6485,0 -8.4172,3.7676 -8.4172,8.416 0,4.6484 3.7687,8.4172 8.4172,8.4172 4.648,0 8.416,-3.7688 8.416,-8.4172" /><text
       xml:space="preserve"
       style="font-style:normal;font-variant:normal;font-weight:normal;font-stretch:normal;line-height:0%;font-family:Arial;-inkscape-font-specification:Arial;letter-spacing:0px;word-spacing:0px;fill:#000000;fill-opacity:1;stroke:none"
       x="139.79947"
       y="-90.750603"
       id="text3839"
       transform="scale(1,-1)"><tspan
         sodipodi:role="line"
         x="139.79947"
         y="-90.750603"
         id="tspan3845"
         style="font-size:16px;line-height:1.25"><tspan
   style="font-weight:bold;font-size:16px;line-height:1.25"
   id="tspan6699">Poor </tspan>bathing </tspan><tspan
         id="tspan6701"
         sodipodi:role="line"
         x="139.79947"
         y="-70.750603"
         style="font-size:16px;line-height:1.25">water quality</tspan></text>
<g
       id="g4912"
       transform="translate(29.2,-2.0012475)"
       inkscape:export-xdpi="53.891205"
       inkscape:export-ydpi="53.891205"><g
         transform="matrix(0.07811736,0,0,0.07811736,229.48066,10.047859)"
         id="g3912"><path
           inkscape:connector-curvature="0"
           id="path3914"
           style="fill:#231f20;fill-opacity:1;fill-rule:nonzero;stroke:none"
           d="m 983.609,461.879 c -33.75,-6.734 -68.961,-11.016 -104.476,-5.813 -35.75,5.481 -66.067,23.668 -98.11,29.122 -31.714,5.675 -64.918,-1.833 -97.168,-11.368 -32.402,-9.41 -65.675,-20.976 -101.496,-22.234 -36.269,-1.231 -69.957,10.906 -102.257,19.434 -32.606,8.691 -65.688,15.105 -98.731,14.703 -32.617,0.179 -63.766,-12.692 -97.617,-21.731 -33.832,-8.902 -69.629,-11.633 -104.813,-7.988 l 2.489,19.309 c 32.5,-5.114 65.98,-2.778 98.144,5.488 31.828,8.097 65.324,21.801 101.653,21.453 35.32,0.156 69.824,-6.934 102.945,-16.016 33.199,-9.148 65.16,-20.64 97.726,-19.691 32.766,0.863 64.887,12.117 97.719,21.746 32.68,9.668 68.078,18.285 104.238,11.988 35.461,-6.293 65.633,-24.265 97.817,-28.793 32.238,-4.715 65.902,-0.644 98.762,6.289 l 3.175,-15.898" /><path
           inkscape:connector-curvature="0"
           id="path3916"
           style="fill:#231f20;fill-opacity:1;fill-rule:nonzero;stroke:none"
           d="m 983.609,401.43 c -33.75,-6.735 -68.961,-11.016 -104.476,-5.813 -35.75,5.481 -66.067,23.668 -98.11,29.121 -31.714,5.676 -64.918,-1.832 -97.168,-11.367 -32.402,-9.406 -65.675,-20.976 -101.496,-22.234 -36.269,-1.231 -69.957,10.906 -102.257,19.433 -32.606,8.692 -65.688,15.106 -98.731,14.703 -32.617,0.18 -63.766,-12.691 -97.617,-21.73 -33.832,-8.902 -69.629,-11.633 -104.813,-7.988 l 2.489,19.304 c 32.5,-5.109 65.98,-2.769 98.144,5.493 31.828,8.097 65.324,21.8 101.653,21.453 35.32,0.156 69.824,-6.934 102.945,-16.016 33.199,-9.148 65.16,-20.641 97.726,-19.691 32.766,0.863 64.887,12.117 97.719,21.746 32.68,9.668 68.078,18.289 104.238,11.988 35.461,-6.293 65.633,-24.269 97.817,-28.793 32.238,-4.715 65.902,-0.644 98.762,6.289 l 3.175,-15.898" /><path
           inkscape:connector-curvature="0"
           id="path3918"
           style="fill:#231f20;fill-opacity:1;fill-rule:nonzero;stroke:none"
           d="m 300.242,534.984 c 10.547,3.438 66.75,18.868 91.778,18.895 75.839,0.09 103.339,-22.676 139.765,-30.164 19.27,-3.965 39.602,-5.207 59.485,-3.606 33.757,2.735 63.73,15.489 95.585,23.137 33.86,8.145 70.274,12.254 105.665,7.891 l -269.661,92.558 59.161,55 c 0,0 130.011,0 170.839,0 61.661,0 66.661,65 0,65 -30,0 -190.839,0 -190.839,0 L 300.242,534.984" /><path
           inkscape:connector-curvature="0"
           id="path3920"
           style="fill:#231f20;fill-opacity:1;fill-rule:nonzero;stroke:none"
           d="m 185.879,656.195 c 0,-46.484 37.684,-84.16 84.172,-84.16 46.48,0 84.168,37.676 84.168,84.16 0,46.485 -37.688,84.168 -84.168,84.168 -46.488,0 -84.172,-37.683 -84.172,-84.168" /><path
           inkscape:connector-curvature="0"
           id="path3922"
           style="fill:#db1b30;fill-opacity:1;fill-rule:nonzero;stroke:none"
           d="M 581.105,1162.21 C 260.164,1162.21 0,902.043 0,581.105 0,260.176 260.164,0 581.105,0 c 320.938,0 581.105,260.176 581.105,581.105 0,320.938 -260.167,581.105 -581.105,581.105 z m 0,-110 c 259.762,0 471.105,-211.339 471.105,-471.105 C 1052.21,321.34 840.867,110 581.105,110 321.34,110 110,321.34 110,581.105 c 0,259.766 211.34,471.105 471.105,471.105" /><path
           inkscape:connector-curvature="0"
           id="path3924"
           style="fill:none;stroke:#db1b30;stroke-width:110;stroke-linecap:butt;stroke-linejoin:miter;stroke-miterlimit:10;stroke-dasharray:none;stroke-opacity:1"
           d="M 185.879,976.332 982.02,180.188" /></g><text
         transform="scale(1,-1)"
         id="text3839-9"
         y="-72.893539"
         x="328.35938"
         style="font-style:normal;font-variant:normal;font-weight:normal;font-stretch:normal;line-height:0%;font-family:Arial;-inkscape-font-specification:Arial;letter-spacing:0px;word-spacing:0px;fill:#000000;fill-opacity:1;stroke:none"
         xml:space="preserve"><tspan
           style="font-size:17.4982872px;line-height:1.25"
           id="tspan3845-0"
           y="-72.893539"
           x="328.35938"
           sodipodi:role="line">Advice </tspan><tspan
           id="tspan3960"
           style="font-size:17.4982872px;line-height:1.25"
           y="-51.020679"
           x="328.35938"
           sodipodi:role="line">against</tspan><tspan
           id="tspan3958"
           style="font-size:17.4982872px;line-height:1.25"
           y="-29.147821"
           x="328.35938"
           sodipodi:role="line">bathing</tspan></text>
</g><g
       transform="translate(-9.555929,-0.56264679)"
       id="g974"
       style="stroke:none;stroke-opacity:1;fill:#303030;fill-opacity:1"><text
         transform="scale(1,-1)"
         id="text909"
         y="-52.394035"
         x="206.70888"
         style="font-style:normal;font-variant:normal;font-weight:normal;font-stretch:normal;font-size:67.5px;line-height:125%;font-family:Arial;-inkscape-font-specification:Arial;letter-spacing:0px;word-spacing:0px;fill:#303030;fill-opacity:1;stroke:none;stroke-width:0.75px;stroke-linecap:butt;stroke-linejoin:miter;stroke-opacity:1"
         xml:space="preserve"><tspan
           id="tspan913"
           style="font-size:12px;fill:#303030;fill-opacity:1;stroke-width:0.75px;stroke:none;stroke-opacity:1"
           y="-52.394035"
           x="206.70888"
           sodipodi:role="line">excellent</tspan><tspan
           id="tspan911"
           style="fill:#303030;fill-opacity:1;stroke-width:0.75px;stroke:none;stroke-opacity:1"
           y="47.285336"
           x="206.70888"
           sodipodi:role="line" /></text>
<text
         transform="scale(1,-1)"
         id="text909-3"
         y="-37.706715"
         x="206.70888"
         style="font-style:normal;font-variant:normal;font-weight:normal;font-stretch:normal;font-size:67.50000763px;line-height:125%;font-family:Arial;-inkscape-font-specification:Arial;letter-spacing:0px;word-spacing:0px;fill:#303030;fill-opacity:1;stroke:none;stroke-width:0.75px;stroke-linecap:butt;stroke-linejoin:miter;stroke-opacity:1"
         xml:space="preserve"><tspan
           id="tspan913-6"
           style="font-size:12px;fill:#303030;fill-opacity:1;stroke-width:0.75px;stroke:none;stroke-opacity:1"
           y="-37.706715"
           x="206.70888"
           sodipodi:role="line">good</tspan><tspan
           id="tspan911-7"
           style="fill:#303030;fill-opacity:1;stroke-width:0.75px;stroke:none;stroke-opacity:1"
           y="61.972664"
           x="206.70888"
           sodipodi:role="line" /></text>
<text
         transform="scale(1,-1)"
         id="text909-5"
         y="-23.019396"
         x="206.70888"
         style="font-style:normal;font-variant:normal;font-weight:normal;font-stretch:normal;font-size:67.50000763px;line-height:125%;font-family:Arial;-inkscape-font-specification:Arial;letter-spacing:0px;word-spacing:0px;fill:#303030;fill-opacity:1;stroke:none;stroke-width:0.75px;stroke-linecap:butt;stroke-linejoin:miter;stroke-opacity:1"
         xml:space="preserve"><tspan
           id="tspan913-3"
           style="font-size:12px;fill:#303030;fill-opacity:1;stroke-width:0.75px;stroke:none;stroke-opacity:1"
           y="-23.019396"
           x="206.70888"
           sodipodi:role="line">sufficient</tspan><tspan
           id="tspan911-5"
           style="fill:#303030;fill-opacity:1;stroke-width:0.75px;stroke:none;stroke-opacity:1"
           y="76.659981"
           x="206.70888"
           sodipodi:role="line" /></text>
<text
         transform="scale(1,-1)"
         id="text909-6"
         y="-8.3320761"
         x="206.70888"
         style="font-style:normal;font-variant:normal;font-weight:normal;font-stretch:normal;font-size:67.50000763px;line-height:125%;font-family:Arial;-inkscape-font-specification:Arial;letter-spacing:0px;word-spacing:0px;fill:#303030;fill-opacity:1;stroke:none;stroke-width:0.75px;stroke-linecap:butt;stroke-linejoin:miter;stroke-opacity:1"
         xml:space="preserve"><tspan
           id="tspan913-2"
           style="font-size:12px;fill:#303030;fill-opacity:1;stroke-width:0.75px;stroke:none;stroke-opacity:1"
           y="-8.3320761"
           x="206.70888"
           sodipodi:role="line">poor</tspan><tspan
           id="tspan911-9"
           style="fill:#303030;fill-opacity:1;stroke-width:0.75px;stroke:none;stroke-opacity:1"
           y="91.347305"
           x="206.70888"
           sodipodi:role="line" /></text>
</g></g></svg>