<?xml version="1.0" encoding="UTF-8" standalone="no"?>
<!-- Created with Inkscape (http://www.inkscape.org/) -->

<svg
   xmlns:dc="http://purl.org/dc/elements/1.1/"
   xmlns:cc="http://creativecommons.org/ns#"
   xmlns:rdf="http://www.w3.org/1999/02/22-rdf-syntax-ns#"
   xmlns:svg="http://www.w3.org/2000/svg"
   xmlns="http://www.w3.org/2000/svg"
   xmlns:sodipodi="http://sodipodi.sourceforge.net/DTD/sodipodi-0.dtd"
   xmlns:inkscape="http://www.inkscape.org/namespaces/inkscape"
   id="svg3902"
   version="1.1"
   inkscape:version="0.48.5 r10040"
   width="250.37376"
   height="147.27625"
   xml:space="preserve"
   sodipodi:docname="baignade-no-bathing.svg"
   inkscape:export-filename="/home/ian/workspace/bwq-profiles/app/images/baignade-no-bathing.png"
   inkscape:export-xdpi="49.560753"
   inkscape:export-ydpi="49.560753"><metadata
     id="metadata3908"><rdf:RDF><cc:Work
         rdf:about=""><dc:format>image/svg+xml</dc:format><dc:type
           rdf:resource="http://purl.org/dc/dcmitype/StillImage" /><dc:title></dc:title></cc:Work></rdf:RDF></metadata><defs
     id="defs3906" /><sodipodi:namedview
     pagecolor="#ffffff"
     bordercolor="#666666"
     borderopacity="1"
     objecttolerance="10"
     gridtolerance="10"
     guidetolerance="10"
     inkscape:pageopacity="0"
     inkscape:pageshadow="2"
     inkscape:window-width="1826"
     inkscape:window-height="945"
     id="namedview3904"
     showgrid="false"
     fit-margin-top="1"
     fit-margin-left="1"
     fit-margin-right="1"
     fit-margin-bottom="1"
     inkscape:zoom="1.6245053"
     inkscape:cx="-4.5401481"
     inkscape:cy="63.996508"
     inkscape:window-x="0"
     inkscape:window-y="27"
     inkscape:window-maximized="0"
     inkscape:current-layer="g3910" /><g
     id="g3910"
     inkscape:groupmode="layer"
     inkscape:label="ink_ext_XXXXXX"
     transform="matrix(1.25,0,0,-1.25,1,155.91724)"><g
       id="g3912"
       transform="matrix(0.1,0,0,0.1,0,7.712796)"><path
         d="m 983.609,461.879 c -33.75,-6.734 -68.961,-11.016 -104.476,-5.813 -35.75,5.481 -66.067,23.668 -98.11,29.122 -31.714,5.675 -64.918,-1.833 -97.168,-11.368 -32.402,-9.41 -65.675,-20.976 -101.496,-22.234 -36.269,-1.231 -69.957,10.906 -102.257,19.434 -32.606,8.691 -65.688,15.105 -98.731,14.703 -32.617,0.179 -63.766,-12.692 -97.617,-21.731 -33.832,-8.902 -69.629,-11.633 -104.813,-7.988 l 2.489,19.309 c 32.5,-5.114 65.98,-2.778 98.144,5.488 31.828,8.097 65.324,21.801 101.653,21.453 35.32,0.156 69.824,-6.934 102.945,-16.016 33.199,-9.148 65.16,-20.64 97.726,-19.691 32.766,0.863 64.887,12.117 97.719,21.746 32.68,9.668 68.078,18.285 104.238,11.988 35.461,-6.293 65.633,-24.265 97.817,-28.793 32.238,-4.715 65.902,-0.644 98.762,6.289 l 3.175,-15.898"
         style="fill:#231f20;fill-opacity:1;fill-rule:nonzero;stroke:none"
         id="path3914"
         inkscape:connector-curvature="0" /><path
         d="m 983.609,401.43 c -33.75,-6.735 -68.961,-11.016 -104.476,-5.813 -35.75,5.481 -66.067,23.668 -98.11,29.121 -31.714,5.676 -64.918,-1.832 -97.168,-11.367 -32.402,-9.406 -65.675,-20.976 -101.496,-22.234 -36.269,-1.231 -69.957,10.906 -102.257,19.433 -32.606,8.692 -65.688,15.106 -98.731,14.703 -32.617,0.18 -63.766,-12.691 -97.617,-21.73 -33.832,-8.902 -69.629,-11.633 -104.813,-7.988 l 2.489,19.304 c 32.5,-5.109 65.98,-2.769 98.144,5.493 31.828,8.097 65.324,21.8 101.653,21.453 35.32,0.156 69.824,-6.934 102.945,-16.016 33.199,-9.148 65.16,-20.641 97.726,-19.691 32.766,0.863 64.887,12.117 97.719,21.746 32.68,9.668 68.078,18.289 104.238,11.988 35.461,-6.293 65.633,-24.269 97.817,-28.793 32.238,-4.715 65.902,-0.644 98.762,6.289 l 3.175,-15.898"
         style="fill:#231f20;fill-opacity:1;fill-rule:nonzero;stroke:none"
         id="path3916"
         inkscape:connector-curvature="0" /><path
         d="m 300.242,534.984 c 10.547,3.438 66.75,18.868 91.778,18.895 75.839,0.09 103.339,-22.676 139.765,-30.164 19.27,-3.965 39.602,-5.207 59.485,-3.606 33.757,2.735 63.73,15.489 95.585,23.137 33.86,8.145 70.274,12.254 105.665,7.891 l -269.661,92.558 59.161,55 c 0,0 130.011,0 170.839,0 61.661,0 66.661,65 0,65 -30,0 -190.839,0 -190.839,0 L 300.242,534.984"
         style="fill:#231f20;fill-opacity:1;fill-rule:nonzero;stroke:none"
         id="path3918"
         inkscape:connector-curvature="0" /><path
         d="m 185.879,656.195 c 0,-46.484 37.684,-84.16 84.172,-84.16 46.48,0 84.168,37.676 84.168,84.16 0,46.485 -37.688,84.168 -84.168,84.168 -46.488,0 -84.172,-37.683 -84.172,-84.168"
         style="fill:#231f20;fill-opacity:1;fill-rule:nonzero;stroke:none"
         id="path3920"
         inkscape:connector-curvature="0" /><path
         d="M 581.105,1162.21 C 260.164,1162.21 0,902.043 0,581.105 0,260.176 260.164,0 581.105,0 c 320.938,0 581.105,260.176 581.105,581.105 0,320.938 -260.167,581.105 -581.105,581.105 l 0,0 z m 0,-110 c 259.762,0 471.105,-211.339 471.105,-471.105 C 1052.21,321.34 840.867,110 581.105,110 321.34,110 110,321.34 110,581.105 c 0,259.766 211.34,471.105 471.105,471.105"
         style="fill:#db1b30;fill-opacity:1;fill-rule:nonzero;stroke:none"
         id="path3922"
         inkscape:connector-curvature="0" /><path
         d="M 185.879,976.332 982.02,180.188"
         style="fill:none;stroke:#db1b30;stroke-width:110;stroke-linecap:butt;stroke-linejoin:miter;stroke-miterlimit:10;stroke-opacity:1;stroke-dasharray:none"
         id="path3924"
         inkscape:connector-curvature="0" /></g><text
       xml:space="preserve"
       style="font-size:22.39999962px;font-style:normal;font-variant:normal;font-weight:normal;font-stretch:normal;line-height:125%;letter-spacing:0px;word-spacing:0px;fill:#000000;fill-opacity:1;stroke:none;font-family:Arial;-inkscape-font-specification:Arial"
       x="126.57714"
       y="-88.163139"
       id="text3839"
       sodipodi:linespacing="125%"
       transform="scale(1,-1)"><tspan
         sodipodi:role="line"
         x="126.57714"
         y="-88.163139"
         id="tspan3845"
         style="font-size:22.39999962px">Advice </tspan><tspan
         sodipodi:role="line"
         x="126.57714"
         y="-60.163139"
         style="font-size:22.39999962px"
         id="tspan3960">against</tspan><tspan
         sodipodi:role="line"
         x="126.57714"
         y="-32.163139"
         style="font-size:22.39999962px"
         id="tspan3958">bathing</tspan></text>
</g></svg>