<?xml version="1.0" encoding="UTF-8" standalone="no"?>
<!-- Created with Inkscape (http://www.inkscape.org/) -->

<svg
   xmlns:dc="http://purl.org/dc/elements/1.1/"
   xmlns:cc="http://creativecommons.org/ns#"
   xmlns:rdf="http://www.w3.org/1999/02/22-rdf-syntax-ns#"
   xmlns:svg="http://www.w3.org/2000/svg"
   xmlns="http://www.w3.org/2000/svg"
   xmlns:sodipodi="http://sodipodi.sourceforge.net/DTD/sodipodi-0.dtd"
   xmlns:inkscape="http://www.inkscape.org/namespaces/inkscape"
   version="1.1"
   id="svg861"
   xml:space="preserve"
   width="684.09064"
   height="189.17867"
   viewBox="0 0 684.09064 189.17867"
   sodipodi:docname="ea-logo_354cmyk.svg"
   inkscape:version="0.92.2 (5c3e80d, 2017-08-06)"><metadata
     id="metadata867"><rdf:RDF><cc:Work
         rdf:about=""><dc:format>image/svg+xml</dc:format><dc:type
           rdf:resource="http://purl.org/dc/dcmitype/StillImage" /><dc:title></dc:title></cc:Work></rdf:RDF></metadata><defs
     id="defs865" /><sodipodi:namedview
     pagecolor="#ffffff"
     bordercolor="#666666"
     borderopacity="1"
     objecttolerance="10"
     gridtolerance="10"
     guidetolerance="10"
     inkscape:pageopacity="0"
     inkscape:pageshadow="2"
     inkscape:window-width="1920"
     inkscape:window-height="1136"
     id="namedview863"
     showgrid="false"
     inkscape:zoom="1.6399452"
     inkscape:cx="342.04934"
     inkscape:cy="94.692007"
     inkscape:window-x="0"
     inkscape:window-y="27"
     inkscape:window-maximized="1"
     inkscape:current-layer="g869" /><g
     id="g869"
     inkscape:groupmode="layer"
     inkscape:label="ink_ext_XXXXXX"
     transform="matrix(1.3333333,0,0,-1.3333333,-76.257331,265.23333)"><g
       id="g968"><path
         d="m 247.442,168.403 2.004,0.127 v 9.957 l -21.238,-0.124 -14.104,0.125 -0.008,-2.274 c 5.254,-0.176 6.469,-0.348 6.469,-5.027 V 144.38 c 0,-5.652 -0.732,-6.464 -6.469,-6.464 v -2.285 l 15.475,0.123 20.085,-0.121 c 0.714,3.289 2.011,7.502 2.982,10.201 l -2.153,0.381 c -2.582,-6.283 -5.784,-7.323 -12.301,-7.62 h -3.573 c -6.434,0 -6.66,1.404 -6.66,8.034 0,0 0,8.926 0,9.59 0.647,0 6.932,0 6.932,0 5.285,0 7.066,-0.357 7.066,-5.796 h 2.088 l -0.149,4.131 -0.137,2.927 c 0,2.089 0.172,6.066 0.31,7.435 h -2.068 c -0.525,-4.351 -0.899,-5.508 -5.408,-5.508 0,0 -7.976,0 -8.634,0 0,0.669 0,15.446 0,16.115 0.651,0 8.878,0 8.878,0 6.935,0 9.665,-1.833 10.613,-7.12"
         style="fill:#1aae4f;fill-opacity:1;fill-rule:nonzero;stroke:none;stroke-width:0.1"
         id="path873"
         inkscape:connector-curvature="0" /><path
         d="m 255.112,161.546 c 2.606,-0.598 3.834,-1.913 3.834,-4.124 v -17.529 c 0,-1.757 -0.813,-1.825 -2.819,-1.825 h -1.545 v -2.44 l 7.501,0.138 7.374,-0.138 -0.008,2.44 h -1.548 c -2.046,0 -2.95,0.073 -2.95,1.825 0,0 0,18.985 0,19.376 2.317,1.519 5.425,2.702 7.317,2.702 3.102,0 5.728,-1.23 5.728,-5.582 v -16.496 c 0,-1.757 -0.812,-1.825 -2.816,-1.825 h -1.55 v -2.44 l 7.501,0.138 7.374,-0.138 -0.008,2.44 h -1.545 c -2.047,0 -2.953,0.073 -2.953,1.825 v 17.063 c 0,6.586 -3.383,9.62 -7.96,9.62 -4.036,0 -7.207,-2.12 -11.088,-4.634 0,0.968 0,3.93 0,3.93 0,0.824 -0.631,0.748 -0.873,0.644 -2.426,-1.052 -6.341,-2.437 -8.966,-3.212 v -1.758"
         style="fill:#1aae4f;fill-opacity:1;fill-rule:nonzero;stroke:none;stroke-width:0.1"
         id="path875"
         inkscape:connector-curvature="0" /><path
         d="m 516.715,161.546 c 2.604,-0.598 3.833,-1.913 3.833,-4.124 v -17.529 c 0,-1.757 -0.815,-1.825 -2.821,-1.825 h -1.542 v -2.44 l 7.505,0.138 7.368,-0.138 -0.006,2.44 h -1.549 c -2.047,0 -2.946,0.073 -2.946,1.825 0,0 0,18.985 0,19.376 2.312,1.519 5.42,2.702 7.315,2.702 3.1,0 5.727,-1.23 5.727,-5.582 v -16.496 c 0,-1.757 -0.815,-1.825 -2.815,-1.825 h -1.551 v -2.44 l 7.502,0.138 7.37,-0.138 -0.004,2.44 h -1.544 c -2.048,0 -2.955,0.073 -2.955,1.825 v 17.063 c 0,6.586 -3.382,9.62 -7.962,9.62 -4.038,0 -7.205,-2.12 -11.083,-4.634 0,0.968 0,3.93 0,3.93 0,0.824 -0.636,0.748 -0.878,0.644 -2.422,-1.052 -6.342,-2.437 -8.964,-3.212 v -1.758"
         style="fill:#1aae4f;fill-opacity:1;fill-rule:nonzero;stroke:none;stroke-width:0.1"
         id="path877"
         inkscape:connector-curvature="0" /><path
         d="m 397.979,161.546 c 2.606,-0.598 3.835,-1.913 3.835,-4.124 v -17.529 c 0,-1.757 -0.819,-1.825 -2.819,-1.825 h -1.545 v -2.44 l 7.498,0.138 7.375,-0.138 -0.009,2.44 h -1.545 c -2.045,0 -2.951,0.073 -2.951,1.825 0,0 0,18.985 0,19.376 2.313,1.519 5.421,2.702 7.314,2.702 3.107,0 5.73,-1.23 5.73,-5.582 v -16.496 c 0,-1.757 -0.816,-1.825 -2.816,-1.825 h -1.551 v -2.44 l 7.504,0.138 7.37,-0.138 -0.005,2.44 h -1.545 c -2.05,0 -2.953,0.073 -2.953,1.825 v 17.063 c 0,6.586 -3.383,9.62 -7.959,9.62 -4.037,0 -7.207,-2.12 -11.089,-4.634 0,0.968 0,3.93 0,3.93 0,0.824 -0.635,0.748 -0.874,0.644 -2.425,-1.052 -6.339,-2.437 -8.965,-3.212 v -1.758"
         style="fill:#1aae4f;fill-opacity:1;fill-rule:nonzero;stroke:none;stroke-width:0.1"
         id="path879"
         inkscape:connector-curvature="0" /><path
         d="m 319.697,163.148 v 2.442 l -6.523,-0.139 -5.489,0.139 -0.004,-2.41 c 1.087,0.002 1.889,-0.057 2.466,-0.178 0.832,-0.176 1.204,-0.835 1.204,-1.751 0,-0.916 -0.463,-2.497 -1.3,-4.493 l -5.518,-12.764 -5.657,14.191 c -1.151,2.717 -1.09,4.011 0.142,4.685 0.338,0.186 1.575,0.278 2.687,0.278 v 2.439 l -7.763,-0.136 -7.471,0.139 -0.005,-2.442 c 2.516,0 3.497,0 5.488,-4.861 l 9.746,-23.645 h 2.296 l 10.314,23.969 c 1.212,2.823 2.239,4.537 5.387,4.537"
         style="fill:#1aae4f;fill-opacity:1;fill-rule:nonzero;stroke:none;stroke-width:0.1"
         id="path881"
         inkscape:connector-curvature="0" /><path
         d="m 321.838,163.77 v -1.536 c 1.876,-0.552 3.439,-1.85 3.439,-4.416 v -17.925 c 0,-1.757 -0.812,-1.825 -2.816,-1.825 h -1.614 v -2.44 l 7.567,0.138 7.305,-0.138 v 2.44 h -1.488 c -2.045,0 -2.95,0.073 -2.95,1.825 v 25.4 c 0,1.312 -0.712,1.411 -1.662,0.985 -1.587,-0.713 -5.27,-1.822 -7.781,-2.508"
         style="fill:#1aae4f;fill-opacity:1;fill-rule:nonzero;stroke:none;stroke-width:0.1"
         id="path883"
         inkscape:connector-curvature="0" /><path
         d="m 324.684,175.906 c 0,-1.917 1.712,-3.664 3.594,-3.664 1.951,0 3.603,1.679 3.603,3.664 0,1.948 -1.616,3.533 -3.603,3.533 -1.882,0 -3.594,-1.684 -3.594,-3.533"
         style="fill:#1aae4f;fill-opacity:1;fill-rule:nonzero;stroke:none;stroke-width:0.1"
         id="path885"
         inkscape:connector-curvature="0" /><path
         d="m 339.536,161.219 c 2.274,-0.595 3.438,-1.48 3.438,-4.01 v -17.316 c 0,-1.757 -0.813,-1.825 -2.818,-1.825 h -2.145 v -2.44 l 8.233,0.138 7.314,-0.096 2.298,-0.042 v 2.44 H 351.8 c -2.006,0 -2.823,0.068 -2.823,1.825 v 15.543 c 0,3.793 3.565,5.132 4.477,5.132 1.077,0 1.581,-0.37 2.121,-0.761 0.556,-0.404 1.133,-0.825 2.244,-0.825 1.94,0 3.467,1.64 3.467,3.73 0,2.665 -2.412,3.864 -4.126,3.864 -2.812,0 -6.221,-2.458 -8.243,-5.533 v 4.631 c 0,1.026 -0.738,1.114 -1.584,0.644 -1.427,-0.792 -5.51,-2.774 -7.783,-3.641 l -0.014,-1.458"
         style="fill:#1aae4f;fill-opacity:1;fill-rule:nonzero;stroke:none;stroke-width:0.1"
         id="path887"
         inkscape:connector-curvature="0" /><path
         d="m 369.458,151.136 c 0,6.07 2.654,12.688 9.09,12.688 6.523,0 9.248,-7.229 9.248,-13.745 0,-6.073 -2.669,-12.688 -9.154,-12.688 -6.478,0 -9.184,7.229 -9.184,13.745 z m -6.801,-0.659 c 0,-10.023 6.57,-15.835 16.049,-15.835 8.584,0 15.885,6.377 15.885,16.098 0,10.169 -6.434,15.836 -16.108,15.836 -8.693,0 -15.826,-6.226 -15.826,-16.099"
         style="fill:#1aae4f;fill-opacity:1;fill-rule:nonzero;stroke:none;stroke-width:0.1"
         id="path889"
         inkscape:connector-curvature="0" /><path
         d="m 462.149,161.659 c -1.047,3.146 -3.537,4.917 -7.168,4.917 -4.591,0 -7.564,-2.12 -11.005,-4.572 0,0 -0.061,-0.045 -0.08,-0.054 0,0.947 0,3.343 0,3.343 0,1.156 -0.922,1.632 -2.19,0.901 -0.3,-0.174 -4.06,-1.469 -7.256,-2.424 v -1.536 c 2.016,-0.591 3.442,-1.85 3.442,-4.416 v -17.925 c 0,-1.757 -0.811,-1.825 -2.817,-1.825 h -1.75 v -2.443 l 7.703,0.141 7.375,-0.138 -0.009,2.44 h -1.546 c -2.046,0 -2.952,0.073 -2.952,1.825 0,0 0,18.996 0,19.382 1.828,1.245 5.198,3.013 7.449,3.013 3.786,0 5.4,-2.325 5.4,-7.779 v -14.616 c 0,-1.757 -0.812,-1.825 -2.818,-1.825 h -1.55 v -2.44 l 7.504,0.138 7.434,-0.138 v 2.44 h -1.55 c -2.036,0 -3.017,0.076 -3.017,1.825 0,0 0,18.996 0,19.382 1.827,1.245 5.196,3.013 7.45,3.013 3.783,0 5.393,-2.325 5.393,-7.779 v -14.616 c 0,-1.757 -0.813,-1.825 -2.819,-1.825 h -1.545 v -2.44 l 7.5,0.138 7.179,-0.138 -0.007,2.44 h -1.353 c -2.044,0 -2.945,0.073 -2.945,1.825 v 16.999 c 0,6.062 -3.077,9.684 -8.228,9.684 -4.15,0 -8.485,-2.819 -11.224,-4.917"
         style="fill:#1aae4f;fill-opacity:1;fill-rule:nonzero;stroke:none;stroke-width:0.1"
         id="path891"
         inkscape:connector-curvature="0" /><path
         d="m 494.335,156.721 c 0.871,4.381 3.486,7.021 7.134,7.021 3.279,0 5.393,-2.249 5.393,-5.725 0,-0.773 -0.466,-1.296 -1.492,-1.296 z m 18.025,-2.831 0.867,1.095 c 0,8.088 -5.81,11.591 -11.498,11.591 -5.51,0 -13.714,-4.569 -13.714,-17.159 0,-5.112 2.714,-14.775 12.988,-14.775 6.012,0 9.852,4.069 12.519,7.615 l -1.461,1.395 c -2.993,-2.994 -5.669,-4.329 -8.677,-4.329 -4.938,0 -8.965,4.775 -9.365,11.109 -0.065,1.121 -0.1,1.925 -0.1,2.517 0,0.441 0.035,0.689 0.068,0.941 h 18.373"
         style="fill:#1aae4f;fill-opacity:1;fill-rule:nonzero;stroke:none;stroke-width:0.1"
         id="path893"
         inkscape:connector-curvature="0" /><path
         d="m 318.927,104.457 c 2.605,-0.595 3.835,-1.91 3.835,-4.124 V 82.807 c 0,-1.7558 -0.814,-1.8261 -2.82,-1.8261 h -1.546 v -2.4411 l 7.502,0.1403 7.373,-0.1403 -0.006,2.4411 h -1.549 c -2.045,0 -2.949,0.0742 -2.949,1.8261 0,0 0,18.983 0,19.376 2.316,1.516 5.423,2.703 7.316,2.703 3.102,0 5.727,-1.232 5.727,-5.5821 V 82.807 c 0,-1.7558 -0.812,-1.8261 -2.815,-1.8261 h -1.549 v -2.4411 l 7.498,0.1403 7.377,-0.1403 -0.011,2.4411 h -1.545 c -2.045,0 -2.951,0.0742 -2.951,1.8261 v 17.0641 c 0,6.5829 -3.382,9.6149 -7.962,9.6149 -4.037,0 -7.205,-2.116 -11.085,-4.631 0,0.969 0,3.931 0,3.931 0,0.824 -0.631,0.748 -0.875,0.643 -2.424,-1.051 -6.339,-2.436 -8.965,-3.214 v -1.758"
         style="fill:#1aae4f;fill-opacity:1;fill-rule:nonzero;stroke:none;stroke-width:0.1"
         id="path895"
         inkscape:connector-curvature="0" /><path
         d="m 296.865,99.6352 c 0.872,4.3808 3.487,7.0208 7.133,7.0208 3.276,0 5.395,-2.249 5.395,-5.728 0,-0.773 -0.468,-1.2928 -1.495,-1.2928 z m 18.023,-2.8332 0.869,1.096 c 0,8.09 -5.812,11.588 -11.496,11.588 -5.513,0 -13.718,-4.569 -13.718,-17.154 0,-5.1121 2.714,-14.7781 12.99,-14.7781 6.01,0 9.849,4.0711 12.522,7.618 l -1.464,1.3941 c -2.994,-2.9941 -5.669,-4.3301 -8.676,-4.3301 -4.938,0 -8.968,4.7762 -9.369,11.109 -0.065,1.1223 -0.099,1.9262 -0.099,2.518 0,0.441 0.034,0.6891 0.072,0.9391 h 18.369"
         style="fill:#1aae4f;fill-opacity:1;fill-rule:nonzero;stroke:none;stroke-width:0.1"
         id="path897"
         inkscape:connector-curvature="0" /><path
         d="m 550.204,163.524 v -1.595 h 4.365 v -20.778 c 0,-4.198 2.358,-6.509 6.637,-6.509 3.08,0 6.043,1.505 9.055,4.604 l -1.483,1.511 c -1.513,-1.317 -2.748,-1.83 -4.398,-1.83 -0.891,0 -3.809,0.377 -3.809,5.201 v 17.801 h 9.541 v 3.65 h -9.541 v 6.666 h -1.451 c -3.015,-4.788 -6.313,-7.168 -8.916,-8.721"
         style="fill:#1aae4f;fill-opacity:1;fill-rule:nonzero;stroke:none;stroke-width:0.1"
         id="path899"
         inkscape:connector-curvature="0" /><path
         d="m 232.81,113.418 6.855,-16.2379 h -13.071 z m 2.135,8.774 c -0.9,-1.275 -3.479,-2.553 -4.352,-2.871 0.635,-2.179 0.236,-3.56 -1.049,-6.756 -0.023,-0.054 -9.461,-22.8189 -9.461,-22.8189 -0.652,-1.6492 -1.326,-3.3551 -2.14,-4.9422 -1.654,-3.1918 -2.645,-3.8398 -6.375,-4.041 v -2.2188 l 8.339,0.1239 8.45,-0.1239 -0.005,2.2539 -2.43,-0.0449 c -2.434,0.1039 -3.811,0.3328 -3.811,2.4699 0,1.8051 1.018,4.6379 1.835,6.9149 l 1.42,3.9019 h 15.627 l 3.338,-8.3519 c 0.488,-1.1348 1.068,-2.7309 1.003,-3.2957 -0.131,-1.1641 -1.148,-1.5942 -3.416,-1.5942 h -1.589 v -2.257 l 10.37,0.127 7.93,-0.1239 -0.005,2.2539 c -1.701,0 -3.752,0.059 -5.047,1.4762 -0.86,0.9406 -2.157,4.3149 -3.133,6.7508 l -13.911,33.167 h -1.588"
         style="fill:#1aae4f;fill-opacity:1;fill-rule:nonzero;stroke:none;stroke-width:0.1"
         id="path901"
         inkscape:connector-curvature="0" /><path
         d="m 266.833,99.875 c 0,3.458 2.03,7.179 5.782,7.179 4.239,0 6.139,-4.177 6.139,-8.3052 0,-3.5699 -1.59,-7.384 -6.058,-7.384 -4.027,0 -5.863,3.5672 -5.863,8.5102 z m -2.312,-27.1891 c 0,5.8633 6.392,5.8633 10.622,5.8633 5.953,0 8.97,-1.6844 8.97,-5 0,-5.95 -8.101,-7.2523 -11.221,-7.2523 -3.861,0 -8.371,1.6722 -8.371,6.389 z m -2.782,14.6692 c -0.527,-0.6852 -0.841,-1.8821 -0.841,-2.6301 0,-2.8969 2.56,-4.7898 5.216,-5.759 -3.741,-0.8558 -7.138,-3.3988 -7.138,-7.734 0,-4.5949 4.422,-7.7629 12.861,-7.7629 13.973,0 17.883,8.7989 17.883,12.7368 0,4.8031 -3.114,7.3562 -9.418,7.3562 -1.655,0 -6.992,-0.0101 -9.129,0.0641 -4.267,0.1429 -4.27,2.023 -4.27,2.6898 0,1.407 0.86,2.2031 1.729,2.9942 1.236,-0.2364 2.516,-0.377 3.534,-0.377 8.267,0 12.591,5.3027 12.591,10.543 0,1.6838 -0.574,3.3068 -1.464,4.6438 1.018,-0.042 6.294,-0.252 6.294,-0.252 v 3.957 c -1.786,-0.271 -3.086,-0.384 -4.193,-0.384 -2.468,0 -4.421,0.563 -6.118,1.053 -2.011,0.579 -4.421,0.995 -6.116,0.995 -7.732,0 -12.728,-4.138 -12.728,-10.5421 0,-3.8489 1.884,-6.5821 5.959,-8.827 l -4.652,-2.7648"
         style="fill:#1aae4f;fill-opacity:1;fill-rule:nonzero;stroke:none;stroke-width:0.1"
         id="path903"
         inkscape:connector-curvature="0" /><path
         d="m 379.138,86.2359 c -2.651,-2.0617 -4.805,-3.173 -8.006,-3.1668 -7.846,0.0118 -10.813,5.0989 -10.836,12.6629 -0.015,5.121 3.728,10.57 8.414,10.529 3.463,-0.031 4.463,-1.464 5.617,-3.007 0.778,-1.035 1.513,-2.014 2.771,-2.022 1.837,-0.014 2.772,1.595 2.747,3.191 -0.035,2.947 -3.78,4.851 -9.385,4.905 -9.183,0.092 -16.104,-7.283 -16.104,-17.2788 0,-8.2402 5.969,-14.3082 13.425,-14.3082 5.585,0 10.038,3.334 12.956,6.8481 l -1.599,1.6468"
         style="fill:#1aae4f;fill-opacity:1;fill-rule:nonzero;stroke:none;stroke-width:0.1"
         id="path905"
         inkscape:connector-curvature="0" /><path
         d="m 395.22,79.9629 c -0.218,-0.5789 -1.586,-4.1328 -4.402,-10.1359 -0.809,0.6179 -1.522,0.8371 -2.557,0.8371 -2.022,0 -3.532,-1.9371 -3.532,-3.6653 0,-2.0136 1.545,-3.5297 3.596,-3.5297 2.086,0 3.531,1.12 4.563,3.5219 l 14.947,35.057 c 1.196,2.77 2.434,4.068 5.256,4.009 v 2.452 l -5.319,-0.144 -6.528,0.136 -0.046,-2.437 c 0.951,0 1.709,-0.045 2.289,-0.213 0.961,-0.277 1.416,-0.894 1.416,-2.207 0,-0.386 -0.261,-1.256 -0.676,-2.401 l -5.55,-13.55 -5.457,13.718 c -0.551,1.377 -1.047,2.674 -0.967,3.224 0.099,0.684 0.516,1.05 1.312,1.246 0.575,0.141 1.349,0.193 2.338,0.211 l -0.009,2.412 -6.311,-0.139 -8.029,0.139 v -2.477 c 0.452,-0.02 1.095,0.02 1.566,-0.095 1.184,-0.287 2.136,-0.916 2.649,-2.133 l 9.451,-23.8361"
         style="fill:#1aae4f;fill-opacity:1;fill-rule:nonzero;stroke:none;stroke-width:0.1"
         id="path907"
         inkscape:connector-curvature="0" /><path
         d="m 199.075,127.982 c 0,-39.1789 -31.762,-70.941 -70.941,-70.941 -39.1793,0 -70.941,31.7621 -70.941,70.941 0,39.181 31.7617,70.943 70.941,70.943 39.179,0 70.941,-31.762 70.941,-70.943"
         style="fill:#ffffff;fill-opacity:1;fill-rule:nonzero;stroke:none;stroke-width:0.1"
         id="path911"
         inkscape:connector-curvature="0" /><path
         d="m 128.134,198.925 c -39.1793,0 -70.941,-31.762 -70.941,-70.943 0,-30.0308 18.6718,-55.6871 45.032,-66.0371 6.009,16.2422 13.221,32.4403 17.338,41.2271 -0.351,5.906 -1.07,11.283 -1.783,15.486 -16.293,4.024 -27.8527,15.156 -27.8527,15.156 l 4.6387,6.846 c 0,0 15.794,-12.713 34.609,-12.713 18.812,0 34.599,12.709 34.599,12.709 l 4.647,-6.842 c 0,0 -11.576,-11.154 -27.895,-15.166 -0.699,-4.131 -1.41,-9.402 -1.765,-15.189 4.031,-8.5879 11.144,-24.6449 17.144,-40.7719 25.377,10.807 43.17,35.9731 43.17,65.2949 0,39.181 -31.762,70.943 -70.941,70.943 z M 111.327,59.0621 c 5.391,-1.3101 11.014,-2.0211 16.807,-2.0211 6.496,0 12.779,0.891 18.756,2.525 -5.383,12.8481 -17.659,36.0961 -17.659,36.0961 0,0 -12.716,-23.9379 -17.904,-36.6"
         style="fill:#1aae4f;fill-opacity:1;fill-rule:nonzero;stroke:none;stroke-width:0.1"
         id="path913"
         inkscape:connector-curvature="0" /><path
         d="m 112.525,170.04 c -1.947,3.069 -5.354,5.135 -9.262,5.199 -6.1911,0.114 -11.2927,-4.818 -11.3997,-11 -0.0113,-0.617 0.0289,-1.218 0.1097,-1.806 3.4333,-0.879 9.131,-4.649 9.427,-12.193 -3.1027,4.103 -5.8895,5.388 -10.602,5.802 -6.7214,0.592 -12.4812,-5.306 -12.591,-11.879 -0.0472,-2.558 0.7188,-4.939 2.0547,-6.899 -3.1078,-2.762 -5.098,-6.77 -5.1773,-11.256 -0.1457,-8.51 4.2472,-14.575 11.5851,-15.881 4.0274,-0.717 10.6723,0.224 14.5325,4.558 -3.4918,-7.332 -9.7586,-10.189 -16.0907,-10.256 -10.4433,-0.125 -18.6465,9.184 -18.4664,19.624 0.1012,5.628 2.6449,10.646 6.6133,14.039 -1.3359,2.461 -2.0734,5.296 -2.0195,8.296 0.1465,8.352 6.3593,15.172 14.366,16.338 -0.034,0.533 -0.0527,1.074 -0.0457,1.617 0.1723,9.668 8.1414,17.373 17.808,17.201 3.128,-0.056 6.047,-0.924 8.558,-2.401 2.99,3.059 7.185,4.925 11.801,4.845 7.908,-0.136 14.384,-5.95 15.615,-13.484 -3.018,3.843 -7.676,6.343 -12.938,6.433 -5.683,0.097 -10.757,-2.633 -13.878,-6.897"
         style="fill:#ffffff;fill-opacity:1;fill-rule:nonzero;stroke:none;stroke-width:0.1"
         id="path915"
         inkscape:connector-curvature="0" /><path
         d="m 137.968,139.078 c 0.218,0.674 0.342,1.393 0.342,2.15 0,3.674 -2.827,6.65 -6.321,6.65 -3.484,0 -6.312,-2.976 -6.312,-6.65 0,-3.677 2.828,-6.654 6.312,-6.654 0.209,0 0.408,0.012 0.61,0.033 -0.489,-0.174 -0.998,-0.314 -1.528,-0.41 -5.572,-1.037 -10.883,2.885 -11.869,8.75 -0.978,5.869 2.742,11.461 8.317,12.496 5.566,1.033 10.88,-2.881 11.865,-8.752 0.463,-2.744 -0.11,-5.436 -1.416,-7.613"
         style="fill:#ffffff;fill-opacity:1;fill-rule:nonzero;stroke:none;stroke-width:0.1"
         id="path917"
         inkscape:connector-curvature="0" /><path
         d="m 181.767,124.812 c 1.914,5.016 1.636,10.828 -1.254,15.848 -3.123,5.412 -8.573,8.65 -14.364,9.169 0.953,4.014 1.293,7.704 -0.338,11.686 -2.839,6.906 -12.224,10.14 -18.613,7.596 8.711,6.177 20.082,4.968 24.957,-3.889 1.494,-2.707 2.207,-6.465 2.24,-9.668 4.575,-1.088 8.709,-3.988 11.25,-8.383 4.346,-7.531 2.528,-16.925 -3.878,-22.359"
         style="fill:#ffffff;fill-opacity:1;fill-rule:nonzero;stroke:none;stroke-width:0.1"
         id="path919"
         inkscape:connector-curvature="0" /></g></g></svg>