<?xml version="1.0" encoding="UTF-8" standalone="no"?>
<svg
   xmlns:dc="http://purl.org/dc/elements/1.1/"
   xmlns:cc="http://creativecommons.org/ns#"
   xmlns:rdf="http://www.w3.org/1999/02/22-rdf-syntax-ns#"
   xmlns:svg="http://www.w3.org/2000/svg"
   xmlns="http://www.w3.org/2000/svg"
   xmlns:sodipodi="http://sodipodi.sourceforge.net/DTD/sodipodi-0.dtd"
   xmlns:inkscape="http://www.inkscape.org/namespaces/inkscape"
   viewBox="0 0 159.90416 159.90101"
   height="159.90102"
   width="159.90416"
   xml:space="preserve"
   version="1.1"
   id="svg3355"
   sodipodi:docname="ea-logo-dark.svg"
   inkscape:version="0.92.2 (5c3e80d, 2017-08-06)"><sodipodi:namedview
     pagecolor="#ffffff"
     bordercolor="#666666"
     borderopacity="1"
     objecttolerance="10"
     gridtolerance="10"
     guidetolerance="10"
     inkscape:pageopacity="0"
     inkscape:pageshadow="2"
     inkscape:window-width="1718"
     inkscape:window-height="1006"
     id="namedview4632"
     showgrid="false"
     fit-margin-top="0"
     fit-margin-left="0"
     fit-margin-right="0"
     fit-margin-bottom="0"
     inkscape:zoom="3.8722368"
     inkscape:cx="132.84492"
     inkscape:cy="69.194677"
     inkscape:window-x="2014"
     inkscape:window-y="154"
     inkscape:window-maximized="0"
     inkscape:current-layer="layer2" /><metadata
     id="metadata3361"><rdf:RDF><cc:Work
         rdf:about=""><dc:format>image/svg+xml</dc:format><dc:type
           rdf:resource="http://purl.org/dc/dcmitype/StillImage" /><dc:title></dc:title></cc:Work></rdf:RDF></metadata><defs
     id="defs3359" /><g
     inkscape:groupmode="layer"
     id="layer2"
     inkscape:label="Layer 2"
     style="display:inline"><ellipse
       style="fill:#ffffff;fill-opacity:1;stroke-width:1.00298691"
       id="path4687"
       cx="79.927956"
       cy="80.102173"
       rx="79.669708"
       ry="80.057083" /></g><g
     inkscape:groupmode="layer"
     id="layer1"
     inkscape:label="Layer 1"
     style="display:inline"><g
       id="g5372"><path
         id="path4230"
         d="m 50.683162,154.37512 0.803625,-1.98775 C 58.141662,134.27012 65.933162,116.94888 70.520037,107.1505 70.136662,100.672 69.352037,94.76875 68.566412,90.156875 50.695287,85.741875 38.017037,73.53475 38.017037,73.53475 l 5.0875,-7.50625 c 0,0 17.327125,13.94425 37.961375,13.94425 20.633748,0 37.949498,-13.939375 37.949498,-13.939375 l 5.09375,7.504375 c 0,0 -12.698,12.2285 -30.593496,16.630375 -0.76663,4.538505 -1.5455,10.318875 -1.93463,16.661625 4.5,9.58788 12.195876,26.70412 18.847626,44.705 l 0.74125,2.0425 c 28.64675,-12.16113 48.73425,-40.54787 48.73425,-73.626 C 159.90416,35.795 124.10916,0 79.953162,0 35.797912,0 0,35.795 0,79.95125 0,113.778 21.005412,142.695 50.683162,154.37512 Z"
         style="fill:#0b0c0c;fill-opacity:1;fill-rule:nonzero;stroke:none;stroke-width:1.25"
         inkscape:connector-curvature="0" /><path
         id="path4236"
         d="m 90.709537,67.76425 c 0.240625,-0.73825 0.376375,-1.52775 0.376375,-2.359875 0,-4.03025 -3.103,-7.292375 -6.9355,-7.292375 -3.820375,0 -6.923375,3.262125 -6.923375,7.292375 0,4.03175 3.103,7.296 6.923375,7.296 l 0.668,-0.03425 c -0.53175,0.1885 -1.09475,0.34325 -1.675875,0.451625 -6.106875,1.134375 -11.9365,-3.167875 -13.018,-9.599 -1.069875,-6.436125 3.01025,-12.568375 9.1235,-13.704125 6.107875,-1.132875 11.9375,3.158625 13.012747,9.598625 0.50675,3.01025 -0.11775,5.960375 -1.551247,8.351 z"
         style="fill:#ffffff;fill-opacity:1;fill-rule:nonzero;stroke:none;stroke-width:1.25;stroke-opacity:1"
         inkscape:connector-curvature="0" /><path
         id="path4232"
         d="m 138.74666,83.405375 c 2.10125,-5.5 1.79875,-11.870125 -1.3725,-17.376875 -3.42375,-5.9375 -9.40125,-9.488375 -15.75625,-10.058125 1.045,-4.401375 1.42125,-8.44925 -0.37125,-12.815375 -3.115,-7.57625 -13.40825,-11.125 -20.41213,-8.3325 9.55075,-6.77625 22.02588,-5.45 27.37338,4.26375 1.6375,2.9725 2.41625,7.090125 2.45375,10.60625 5.01875,1.191375 9.55625,4.372125 12.33875,9.194875 4.76625,8.25675 2.775,18.5635 -4.25375,24.518 z"
         style="fill:#ffffff;fill-opacity:1;fill-rule:nonzero;stroke:none;stroke-width:1.25;stroke-opacity:1"
         inkscape:connector-curvature="0" /><path
         id="path4228"
         d="m 101.36328,157.00257 -0.80025,-2.0127 C 94.931164,141.175 81.127412,115.38388 81.127412,115.38388 c 0,0 -14.180125,26.48887 -19.650875,40.15087 l -0.832,2.02154 c 6.184625,1.53222 12.650875,2.34472 19.308625,2.34472 7.415,0 14.594752,-1.01122 21.410118,-2.89844 z"
         style="fill:#0b0c0f;fill-opacity:0.94117647;fill-rule:nonzero;stroke:none;stroke-width:1.25"
         inkscape:connector-curvature="0" /><path
         id="path4234"
         d="m 62.805162,33.8025 c -2.138625,-3.3675 -5.872,-5.63125 -10.162125,-5.70375 -6.788,-0.1225 -12.38175,5.28625 -12.4995,12.06625 -0.01213,0.6775 0.03125,1.335 0.11775,1.98125 3.764125,0.96625 10.014125,5.1 10.34175,13.375375 -3.40625,-4.5015 -6.46,-5.910625 -11.627875,-6.36375 -7.374625,-0.6495 -13.692,5.818375 -13.809625,13.027375 -0.05562,2.806625 0.784625,5.417875 2.2505,7.566875 -3.40675,3.03175 -5.588375,7.42725 -5.67525,12.349625 -0.16075,9.3285 4.65525,15.97988 12.703125,17.42088 4.420375,0.77825 11.708,-0.25438 15.942375,-5.003 -3.832125,8.03712 -10.706125,11.17187 -17.648,11.253 C 21.283662,105.9015 12.282662,95.68813 12.480912,84.240375 12.592287,78.066 15.386287,72.5675 19.738287,68.845875 c -1.465375,-2.69925 -2.274875,-5.812 -2.21925,-9.098625 0.160625,-9.163125 6.9785,-16.64225 15.756875,-17.92225 -0.03712,-0.585 -0.05575,-1.17625 -0.04937,-1.77375 0.191375,-10.605 8.932125,-19.05375 19.53375,-18.865 3.430625,0.06125 6.63325,1.01375 9.38325,2.63375 3.28275,-3.35875 7.882375,-5.40375 12.944375,-5.31375 8.673375,0.14875 15.775875,6.52375 17.129377,14.7875 -3.313502,-4.215 -8.419002,-6.95625 -14.192877,-7.05625 -6.231,-0.10625 -11.80075,2.8875 -15.21925,7.565 z"
         style="opacity:1;fill:#ffffff;fill-opacity:0.94117647;fill-rule:nonzero;stroke:none;stroke-width:1.25;stroke-opacity:1"
         inkscape:connector-curvature="0" /></g></g></svg>