<?xml version="1.0" standalone="no"?>
<!DOCTYPE svg PUBLIC "-//W3C//DTD SVG 20010904//EN"
 "http://www.w3.org/TR/2001/REC-SVG-20010904/DTD/svg10.dtd">
<svg version="1.0" xmlns="http://www.w3.org/2000/svg"
 width="700.000000pt" height="700.000000pt" viewBox="0 0 700.000000 700.000000"
 preserveAspectRatio="xMidYMid meet">
<metadata>
Created by potrace 1.11, written by Peter Selinger 2001-2013
</metadata>
<g transform="translate(0.000000,700.000000) scale(0.100000,-0.100000)"
fill="#000000" stroke="none">
<path d="M3215 6990 c-441 -40 -847 -150 -1232 -336 -126 -61 -319 -171 -418
-237 -69 -46 -297 -217 -305 -228 -3 -3 -25 -23 -50 -44 -84 -69 -229 -214
-365 -365 -207 -231 -449 -625 -581 -948 -62 -151 -146 -411 -169 -520 -2 -9
-8 -37 -14 -62 -11 -49 -13 -63 -35 -195 -34 -204 -40 -302 -40 -570 0 -190 7
-330 19 -393 1 -9 6 -42 9 -73 4 -31 9 -67 11 -80 3 -13 7 -39 10 -58 2 -18 7
-41 9 -50 3 -9 7 -27 9 -41 12 -70 61 -256 89 -340 18 -52 32 -97 33 -100 0
-3 3 -9 6 -15 4 -5 14 -35 24 -65 17 -52 63 -161 116 -275 42 -91 141 -268
212 -380 417 -657 1056 -1168 1777 -1423 166 -58 394 -121 495 -136 22 -4 47
-8 55 -11 22 -6 68 -14 120 -20 25 -3 70 -9 100 -14 59 -10 781 -9 816 1 12 4
45 9 75 13 30 3 101 15 159 26 499 96 964 296 1385 598 50 35 92 67 95 70 3 4
25 22 50 41 121 92 345 307 452 434 28 33 56 65 63 73 19 18 141 183 196 263
252 367 440 807 529 1240 32 151 39 192 45 245 4 28 8 61 11 75 25 145 25 639
-1 820 -3 19 -7 56 -10 81 -3 25 -7 54 -9 65 -2 10 -11 60 -21 109 -94 504
-316 1008 -629 1425 -479 640 -1154 1096 -1920 1295 -125 33 -296 68 -381 79
-22 3 -65 8 -95 12 -30 4 -71 9 -90 11 -67 8 -525 10 -605 3z"/>
</g>
</svg>
